<?xml version="1.0" encoding="UTF-8" standalone="no"?>
<!-- This is a Stata 18.0 generated SVG file (http://www.stata.com) -->

<svg version="1.1" width="7.500in" height="4.500in" viewBox="0 0 5400 3240" xmlns="http://www.w3.org/2000/svg" xmlns:xlink="http://www.w3.org/1999/xlink">
	<desc>Stata Graph - Graph</desc>
	<rect x="0" y="0" width="5400" height="3240" style="fill:#FFFFFF;stroke:none"/>
	<rect x="0.00" y="0.00" width="5400.00" height="3240.00" style="fill:#FFFFFF"/>
	<rect x="3.24" y="3.24" width="5393.52" height="3233.52" style="fill:none;stroke:#FFFFFF;stroke-width:6.48"/>
	<rect x="557.89" y="113.40" width="2815.59" height="2524.33" style="fill:#FFFFFF"/>
	<rect x="561.13" y="116.64" width="2809.11" height="2517.85" style="fill:none;stroke:#FFFFFF;stroke-width:6.48"/>
	<line x1="557.89" y1="2637.73" x2="622.69" y2="2637.73" style="stroke:#F0F0F0;stroke-width:9.72"/>
	<line x1="655.09" y1="2637.73" x2="719.89" y2="2637.73" style="stroke:#F0F0F0;stroke-width:9.72"/>
	<line x1="752.29" y1="2637.73" x2="817.09" y2="2637.73" style="stroke:#F0F0F0;stroke-width:9.72"/>
	<line x1="849.49" y1="2637.73" x2="914.29" y2="2637.73" style="stroke:#F0F0F0;stroke-width:9.72"/>
	<line x1="946.69" y1="2637.73" x2="1011.49" y2="2637.73" style="stroke:#F0F0F0;stroke-width:9.72"/>
	<line x1="1043.89" y1="2637.73" x2="1108.69" y2="2637.73" style="stroke:#F0F0F0;stroke-width:9.72"/>
	<line x1="1141.09" y1="2637.73" x2="1205.89" y2="2637.73" style="stroke:#F0F0F0;stroke-width:9.72"/>
	<line x1="1238.29" y1="2637.73" x2="1303.09" y2="2637.73" style="stroke:#F0F0F0;stroke-width:9.72"/>
	<line x1="1335.49" y1="2637.73" x2="1400.29" y2="2637.73" style="stroke:#F0F0F0;stroke-width:9.72"/>
	<line x1="1432.69" y1="2637.73" x2="1497.49" y2="2637.73" style="stroke:#F0F0F0;stroke-width:9.72"/>
	<line x1="1529.89" y1="2637.73" x2="1594.69" y2="2637.73" style="stroke:#F0F0F0;stroke-width:9.72"/>
	<line x1="1627.09" y1="2637.73" x2="1691.89" y2="2637.73" style="stroke:#F0F0F0;stroke-width:9.72"/>
	<line x1="1724.29" y1="2637.73" x2="1789.09" y2="2637.73" style="stroke:#F0F0F0;stroke-width:9.72"/>
	<line x1="1821.49" y1="2637.73" x2="1886.29" y2="2637.73" style="stroke:#F0F0F0;stroke-width:9.72"/>
	<line x1="1918.69" y1="2637.73" x2="1983.49" y2="2637.73" style="stroke:#F0F0F0;stroke-width:9.72"/>
	<line x1="2015.89" y1="2637.73" x2="2080.69" y2="2637.73" style="stroke:#F0F0F0;stroke-width:9.72"/>
	<line x1="2113.09" y1="2637.73" x2="2177.89" y2="2637.73" style="stroke:#F0F0F0;stroke-width:9.72"/>
	<line x1="2210.29" y1="2637.73" x2="2275.09" y2="2637.73" style="stroke:#F0F0F0;stroke-width:9.72"/>
	<line x1="2307.49" y1="2637.73" x2="2372.29" y2="2637.73" style="stroke:#F0F0F0;stroke-width:9.72"/>
	<line x1="2404.69" y1="2637.73" x2="2469.49" y2="2637.73" style="stroke:#F0F0F0;stroke-width:9.72"/>
	<line x1="2501.89" y1="2637.73" x2="2566.69" y2="2637.73" style="stroke:#F0F0F0;stroke-width:9.72"/>
	<line x1="2599.09" y1="2637.73" x2="2663.89" y2="2637.73" style="stroke:#F0F0F0;stroke-width:9.72"/>
	<line x1="2696.29" y1="2637.73" x2="2761.09" y2="2637.73" style="stroke:#F0F0F0;stroke-width:9.72"/>
	<line x1="2793.49" y1="2637.73" x2="2858.29" y2="2637.73" style="stroke:#F0F0F0;stroke-width:9.72"/>
	<line x1="2890.69" y1="2637.73" x2="2955.49" y2="2637.73" style="stroke:#F0F0F0;stroke-width:9.72"/>
	<line x1="2987.89" y1="2637.73" x2="3052.69" y2="2637.73" style="stroke:#F0F0F0;stroke-width:9.72"/>
	<line x1="3085.09" y1="2637.73" x2="3149.89" y2="2637.73" style="stroke:#F0F0F0;stroke-width:9.72"/>
	<line x1="3182.29" y1="2637.73" x2="3247.09" y2="2637.73" style="stroke:#F0F0F0;stroke-width:9.72"/>
	<line x1="3279.49" y1="2637.73" x2="3344.29" y2="2637.73" style="stroke:#F0F0F0;stroke-width:9.72"/>
	<line x1="557.89" y1="1820.14" x2="622.69" y2="1820.14" style="stroke:#F0F0F0;stroke-width:9.72"/>
	<line x1="655.09" y1="1820.14" x2="719.89" y2="1820.14" style="stroke:#F0F0F0;stroke-width:9.72"/>
	<line x1="752.29" y1="1820.14" x2="817.09" y2="1820.14" style="stroke:#F0F0F0;stroke-width:9.72"/>
	<line x1="849.49" y1="1820.14" x2="914.29" y2="1820.14" style="stroke:#F0F0F0;stroke-width:9.72"/>
	<line x1="946.69" y1="1820.14" x2="1011.49" y2="1820.14" style="stroke:#F0F0F0;stroke-width:9.72"/>
	<line x1="1043.89" y1="1820.14" x2="1108.69" y2="1820.14" style="stroke:#F0F0F0;stroke-width:9.72"/>
	<line x1="1141.09" y1="1820.14" x2="1205.89" y2="1820.14" style="stroke:#F0F0F0;stroke-width:9.72"/>
	<line x1="1238.29" y1="1820.14" x2="1303.09" y2="1820.14" style="stroke:#F0F0F0;stroke-width:9.72"/>
	<line x1="1335.49" y1="1820.14" x2="1400.29" y2="1820.14" style="stroke:#F0F0F0;stroke-width:9.72"/>
	<line x1="1432.69" y1="1820.14" x2="1497.49" y2="1820.14" style="stroke:#F0F0F0;stroke-width:9.72"/>
	<line x1="1529.89" y1="1820.14" x2="1594.69" y2="1820.14" style="stroke:#F0F0F0;stroke-width:9.72"/>
	<line x1="1627.09" y1="1820.14" x2="1691.89" y2="1820.14" style="stroke:#F0F0F0;stroke-width:9.72"/>
	<line x1="1724.29" y1="1820.14" x2="1789.09" y2="1820.14" style="stroke:#F0F0F0;stroke-width:9.72"/>
	<line x1="1821.49" y1="1820.14" x2="1886.29" y2="1820.14" style="stroke:#F0F0F0;stroke-width:9.72"/>
	<line x1="1918.69" y1="1820.14" x2="1983.49" y2="1820.14" style="stroke:#F0F0F0;stroke-width:9.72"/>
	<line x1="2015.89" y1="1820.14" x2="2080.69" y2="1820.14" style="stroke:#F0F0F0;stroke-width:9.72"/>
	<line x1="2113.09" y1="1820.14" x2="2177.89" y2="1820.14" style="stroke:#F0F0F0;stroke-width:9.72"/>
	<line x1="2210.29" y1="1820.14" x2="2275.09" y2="1820.14" style="stroke:#F0F0F0;stroke-width:9.72"/>
	<line x1="2307.49" y1="1820.14" x2="2372.29" y2="1820.14" style="stroke:#F0F0F0;stroke-width:9.72"/>
	<line x1="2404.69" y1="1820.14" x2="2469.49" y2="1820.14" style="stroke:#F0F0F0;stroke-width:9.72"/>
	<line x1="2501.89" y1="1820.14" x2="2566.69" y2="1820.14" style="stroke:#F0F0F0;stroke-width:9.72"/>
	<line x1="2599.09" y1="1820.14" x2="2663.89" y2="1820.14" style="stroke:#F0F0F0;stroke-width:9.72"/>
	<line x1="2696.29" y1="1820.14" x2="2761.09" y2="1820.14" style="stroke:#F0F0F0;stroke-width:9.72"/>
	<line x1="2793.49" y1="1820.14" x2="2858.29" y2="1820.14" style="stroke:#F0F0F0;stroke-width:9.72"/>
	<line x1="2890.69" y1="1820.14" x2="2955.49" y2="1820.14" style="stroke:#F0F0F0;stroke-width:9.72"/>
	<line x1="2987.89" y1="1820.14" x2="3052.69" y2="1820.14" style="stroke:#F0F0F0;stroke-width:9.72"/>
	<line x1="3085.09" y1="1820.14" x2="3149.89" y2="1820.14" style="stroke:#F0F0F0;stroke-width:9.72"/>
	<line x1="3182.29" y1="1820.14" x2="3247.09" y2="1820.14" style="stroke:#F0F0F0;stroke-width:9.72"/>
	<line x1="3279.49" y1="1820.14" x2="3344.29" y2="1820.14" style="stroke:#F0F0F0;stroke-width:9.72"/>
	<line x1="557.89" y1="1002.38" x2="622.69" y2="1002.38" style="stroke:#F0F0F0;stroke-width:9.72"/>
	<line x1="655.09" y1="1002.38" x2="719.89" y2="1002.38" style="stroke:#F0F0F0;stroke-width:9.72"/>
	<line x1="752.29" y1="1002.38" x2="817.09" y2="1002.38" style="stroke:#F0F0F0;stroke-width:9.72"/>
	<line x1="849.49" y1="1002.38" x2="914.29" y2="1002.38" style="stroke:#F0F0F0;stroke-width:9.72"/>
	<line x1="946.69" y1="1002.38" x2="1011.49" y2="1002.38" style="stroke:#F0F0F0;stroke-width:9.72"/>
	<line x1="1043.89" y1="1002.38" x2="1108.69" y2="1002.38" style="stroke:#F0F0F0;stroke-width:9.72"/>
	<line x1="1141.09" y1="1002.38" x2="1205.89" y2="1002.38" style="stroke:#F0F0F0;stroke-width:9.72"/>
	<line x1="1238.29" y1="1002.38" x2="1303.09" y2="1002.38" style="stroke:#F0F0F0;stroke-width:9.72"/>
	<line x1="1335.49" y1="1002.38" x2="1400.29" y2="1002.38" style="stroke:#F0F0F0;stroke-width:9.72"/>
	<line x1="1432.69" y1="1002.38" x2="1497.49" y2="1002.38" style="stroke:#F0F0F0;stroke-width:9.72"/>
	<line x1="1529.89" y1="1002.38" x2="1594.69" y2="1002.38" style="stroke:#F0F0F0;stroke-width:9.72"/>
	<line x1="1627.09" y1="1002.38" x2="1691.89" y2="1002.38" style="stroke:#F0F0F0;stroke-width:9.72"/>
	<line x1="1724.29" y1="1002.38" x2="1789.09" y2="1002.38" style="stroke:#F0F0F0;stroke-width:9.72"/>
	<line x1="1821.49" y1="1002.38" x2="1886.29" y2="1002.38" style="stroke:#F0F0F0;stroke-width:9.72"/>
	<line x1="1918.69" y1="1002.38" x2="1983.49" y2="1002.38" style="stroke:#F0F0F0;stroke-width:9.72"/>
	<line x1="2015.89" y1="1002.38" x2="2080.69" y2="1002.38" style="stroke:#F0F0F0;stroke-width:9.72"/>
	<line x1="2113.09" y1="1002.38" x2="2177.89" y2="1002.38" style="stroke:#F0F0F0;stroke-width:9.72"/>
	<line x1="2210.29" y1="1002.38" x2="2275.09" y2="1002.38" style="stroke:#F0F0F0;stroke-width:9.72"/>
	<line x1="2307.49" y1="1002.38" x2="2372.29" y2="1002.38" style="stroke:#F0F0F0;stroke-width:9.72"/>
	<line x1="2404.69" y1="1002.38" x2="2469.49" y2="1002.38" style="stroke:#F0F0F0;stroke-width:9.72"/>
	<line x1="2501.89" y1="1002.38" x2="2566.69" y2="1002.38" style="stroke:#F0F0F0;stroke-width:9.72"/>
	<line x1="2599.09" y1="1002.38" x2="2663.89" y2="1002.38" style="stroke:#F0F0F0;stroke-width:9.72"/>
	<line x1="2696.29" y1="1002.38" x2="2761.09" y2="1002.38" style="stroke:#F0F0F0;stroke-width:9.72"/>
	<line x1="2793.49" y1="1002.38" x2="2858.29" y2="1002.38" style="stroke:#F0F0F0;stroke-width:9.72"/>
	<line x1="2890.69" y1="1002.38" x2="2955.49" y2="1002.38" style="stroke:#F0F0F0;stroke-width:9.72"/>
	<line x1="2987.89" y1="1002.38" x2="3052.69" y2="1002.38" style="stroke:#F0F0F0;stroke-width:9.72"/>
	<line x1="3085.09" y1="1002.38" x2="3149.89" y2="1002.38" style="stroke:#F0F0F0;stroke-width:9.72"/>
	<line x1="3182.29" y1="1002.38" x2="3247.09" y2="1002.38" style="stroke:#F0F0F0;stroke-width:9.72"/>
	<line x1="3279.49" y1="1002.38" x2="3344.29" y2="1002.38" style="stroke:#F0F0F0;stroke-width:9.72"/>
	<line x1="557.89" y1="184.61" x2="622.69" y2="184.61" style="stroke:#F0F0F0;stroke-width:9.72"/>
	<line x1="655.09" y1="184.61" x2="719.89" y2="184.61" style="stroke:#F0F0F0;stroke-width:9.72"/>
	<line x1="752.29" y1="184.61" x2="817.09" y2="184.61" style="stroke:#F0F0F0;stroke-width:9.72"/>
	<line x1="849.49" y1="184.61" x2="914.29" y2="184.61" style="stroke:#F0F0F0;stroke-width:9.72"/>
	<line x1="946.69" y1="184.61" x2="1011.49" y2="184.61" style="stroke:#F0F0F0;stroke-width:9.72"/>
	<line x1="1043.89" y1="184.61" x2="1108.69" y2="184.61" style="stroke:#F0F0F0;stroke-width:9.72"/>
	<line x1="1141.09" y1="184.61" x2="1205.89" y2="184.61" style="stroke:#F0F0F0;stroke-width:9.72"/>
	<line x1="1238.29" y1="184.61" x2="1303.09" y2="184.61" style="stroke:#F0F0F0;stroke-width:9.72"/>
	<line x1="1335.49" y1="184.61" x2="1400.29" y2="184.61" style="stroke:#F0F0F0;stroke-width:9.72"/>
	<line x1="1432.69" y1="184.61" x2="1497.49" y2="184.61" style="stroke:#F0F0F0;stroke-width:9.72"/>
	<line x1="1529.89" y1="184.61" x2="1594.69" y2="184.61" style="stroke:#F0F0F0;stroke-width:9.72"/>
	<line x1="1627.09" y1="184.61" x2="1691.89" y2="184.61" style="stroke:#F0F0F0;stroke-width:9.72"/>
	<line x1="1724.29" y1="184.61" x2="1789.09" y2="184.61" style="stroke:#F0F0F0;stroke-width:9.72"/>
	<line x1="1821.49" y1="184.61" x2="1886.29" y2="184.61" style="stroke:#F0F0F0;stroke-width:9.72"/>
	<line x1="1918.69" y1="184.61" x2="1983.49" y2="184.61" style="stroke:#F0F0F0;stroke-width:9.72"/>
	<line x1="2015.89" y1="184.61" x2="2080.69" y2="184.61" style="stroke:#F0F0F0;stroke-width:9.72"/>
	<line x1="2113.09" y1="184.61" x2="2177.89" y2="184.61" style="stroke:#F0F0F0;stroke-width:9.72"/>
	<line x1="2210.29" y1="184.61" x2="2275.09" y2="184.61" style="stroke:#F0F0F0;stroke-width:9.72"/>
	<line x1="2307.49" y1="184.61" x2="2372.29" y2="184.61" style="stroke:#F0F0F0;stroke-width:9.72"/>
	<line x1="2404.69" y1="184.61" x2="2469.49" y2="184.61" style="stroke:#F0F0F0;stroke-width:9.72"/>
	<line x1="2501.89" y1="184.61" x2="2566.69" y2="184.61" style="stroke:#F0F0F0;stroke-width:9.72"/>
	<line x1="2599.09" y1="184.61" x2="2663.89" y2="184.61" style="stroke:#F0F0F0;stroke-width:9.72"/>
	<line x1="2696.29" y1="184.61" x2="2761.09" y2="184.61" style="stroke:#F0F0F0;stroke-width:9.72"/>
	<line x1="2793.49" y1="184.61" x2="2858.29" y2="184.61" style="stroke:#F0F0F0;stroke-width:9.72"/>
	<line x1="2890.69" y1="184.61" x2="2955.49" y2="184.61" style="stroke:#F0F0F0;stroke-width:9.72"/>
	<line x1="2987.89" y1="184.61" x2="3052.69" y2="184.61" style="stroke:#F0F0F0;stroke-width:9.72"/>
	<line x1="3085.09" y1="184.61" x2="3149.89" y2="184.61" style="stroke:#F0F0F0;stroke-width:9.72"/>
	<line x1="3182.29" y1="184.61" x2="3247.09" y2="184.61" style="stroke:#F0F0F0;stroke-width:9.72"/>
	<line x1="3279.49" y1="184.61" x2="3344.29" y2="184.61" style="stroke:#F0F0F0;stroke-width:9.72"/>
	<line x1="733.73" y1="2637.73" x2="733.73" y2="2572.93" style="stroke:#F0F0F0;stroke-width:9.72"/>
	<line x1="733.73" y1="2540.53" x2="733.73" y2="2475.73" style="stroke:#F0F0F0;stroke-width:9.72"/>
	<line x1="733.73" y1="2443.33" x2="733.73" y2="2378.53" style="stroke:#F0F0F0;stroke-width:9.72"/>
	<line x1="733.73" y1="2346.13" x2="733.73" y2="2281.33" style="stroke:#F0F0F0;stroke-width:9.72"/>
	<line x1="733.73" y1="2248.93" x2="733.73" y2="2184.13" style="stroke:#F0F0F0;stroke-width:9.72"/>
	<line x1="733.73" y1="2151.73" x2="733.73" y2="2086.93" style="stroke:#F0F0F0;stroke-width:9.72"/>
	<line x1="733.73" y1="2054.53" x2="733.73" y2="1989.73" style="stroke:#F0F0F0;stroke-width:9.72"/>
	<line x1="733.73" y1="1957.33" x2="733.73" y2="1892.53" style="stroke:#F0F0F0;stroke-width:9.72"/>
	<line x1="733.73" y1="1860.13" x2="733.73" y2="1795.33" style="stroke:#F0F0F0;stroke-width:9.72"/>
	<line x1="733.73" y1="1762.93" x2="733.73" y2="1698.13" style="stroke:#F0F0F0;stroke-width:9.72"/>
	<line x1="733.73" y1="1665.73" x2="733.73" y2="1600.93" style="stroke:#F0F0F0;stroke-width:9.72"/>
	<line x1="733.73" y1="1568.53" x2="733.73" y2="1503.73" style="stroke:#F0F0F0;stroke-width:9.72"/>
	<line x1="733.73" y1="1471.33" x2="733.73" y2="1406.53" style="stroke:#F0F0F0;stroke-width:9.72"/>
	<line x1="733.73" y1="1374.13" x2="733.73" y2="1309.33" style="stroke:#F0F0F0;stroke-width:9.72"/>
	<line x1="733.73" y1="1276.93" x2="733.73" y2="1212.13" style="stroke:#F0F0F0;stroke-width:9.72"/>
	<line x1="733.73" y1="1179.73" x2="733.73" y2="1114.93" style="stroke:#F0F0F0;stroke-width:9.72"/>
	<line x1="733.73" y1="1082.53" x2="733.73" y2="1017.73" style="stroke:#F0F0F0;stroke-width:9.72"/>
	<line x1="733.73" y1="985.33" x2="733.73" y2="920.53" style="stroke:#F0F0F0;stroke-width:9.72"/>
	<line x1="733.73" y1="888.13" x2="733.73" y2="823.33" style="stroke:#F0F0F0;stroke-width:9.72"/>
	<line x1="733.73" y1="790.93" x2="733.73" y2="726.13" style="stroke:#F0F0F0;stroke-width:9.72"/>
	<line x1="733.73" y1="693.73" x2="733.73" y2="628.93" style="stroke:#F0F0F0;stroke-width:9.72"/>
	<line x1="733.73" y1="596.53" x2="733.73" y2="531.73" style="stroke:#F0F0F0;stroke-width:9.72"/>
	<line x1="733.73" y1="499.33" x2="733.73" y2="434.53" style="stroke:#F0F0F0;stroke-width:9.72"/>
	<line x1="733.73" y1="402.13" x2="733.73" y2="337.33" style="stroke:#F0F0F0;stroke-width:9.72"/>
	<line x1="733.73" y1="304.93" x2="733.73" y2="240.13" style="stroke:#F0F0F0;stroke-width:9.72"/>
	<line x1="733.73" y1="207.73" x2="733.73" y2="142.93" style="stroke:#F0F0F0;stroke-width:9.72"/>
	<line x1="1375.82" y1="2637.73" x2="1375.82" y2="2572.93" style="stroke:#F0F0F0;stroke-width:9.72"/>
	<line x1="1375.82" y1="2540.53" x2="1375.82" y2="2475.73" style="stroke:#F0F0F0;stroke-width:9.72"/>
	<line x1="1375.82" y1="2443.33" x2="1375.82" y2="2378.53" style="stroke:#F0F0F0;stroke-width:9.72"/>
	<line x1="1375.82" y1="2346.13" x2="1375.82" y2="2281.33" style="stroke:#F0F0F0;stroke-width:9.72"/>
	<line x1="1375.82" y1="2248.93" x2="1375.82" y2="2184.13" style="stroke:#F0F0F0;stroke-width:9.72"/>
	<line x1="1375.82" y1="2151.73" x2="1375.82" y2="2086.93" style="stroke:#F0F0F0;stroke-width:9.72"/>
	<line x1="1375.82" y1="2054.53" x2="1375.82" y2="1989.73" style="stroke:#F0F0F0;stroke-width:9.72"/>
	<line x1="1375.82" y1="1957.33" x2="1375.82" y2="1892.53" style="stroke:#F0F0F0;stroke-width:9.72"/>
	<line x1="1375.82" y1="1860.13" x2="1375.82" y2="1795.33" style="stroke:#F0F0F0;stroke-width:9.72"/>
	<line x1="1375.82" y1="1762.93" x2="1375.82" y2="1698.13" style="stroke:#F0F0F0;stroke-width:9.72"/>
	<line x1="1375.82" y1="1665.73" x2="1375.82" y2="1600.93" style="stroke:#F0F0F0;stroke-width:9.72"/>
	<line x1="1375.82" y1="1568.53" x2="1375.82" y2="1503.73" style="stroke:#F0F0F0;stroke-width:9.72"/>
	<line x1="1375.82" y1="1471.33" x2="1375.82" y2="1406.53" style="stroke:#F0F0F0;stroke-width:9.72"/>
	<line x1="1375.82" y1="1374.13" x2="1375.82" y2="1309.33" style="stroke:#F0F0F0;stroke-width:9.72"/>
	<line x1="1375.82" y1="1276.93" x2="1375.82" y2="1212.13" style="stroke:#F0F0F0;stroke-width:9.72"/>
	<line x1="1375.82" y1="1179.73" x2="1375.82" y2="1114.93" style="stroke:#F0F0F0;stroke-width:9.72"/>
	<line x1="1375.82" y1="1082.53" x2="1375.82" y2="1017.73" style="stroke:#F0F0F0;stroke-width:9.72"/>
	<line x1="1375.82" y1="985.33" x2="1375.82" y2="920.53" style="stroke:#F0F0F0;stroke-width:9.72"/>
	<line x1="1375.82" y1="888.13" x2="1375.82" y2="823.33" style="stroke:#F0F0F0;stroke-width:9.72"/>
	<line x1="1375.82" y1="790.93" x2="1375.82" y2="726.13" style="stroke:#F0F0F0;stroke-width:9.72"/>
	<line x1="1375.82" y1="693.73" x2="1375.82" y2="628.93" style="stroke:#F0F0F0;stroke-width:9.72"/>
	<line x1="1375.82" y1="596.53" x2="1375.82" y2="531.73" style="stroke:#F0F0F0;stroke-width:9.72"/>
	<line x1="1375.82" y1="499.33" x2="1375.82" y2="434.53" style="stroke:#F0F0F0;stroke-width:9.72"/>
	<line x1="1375.82" y1="402.13" x2="1375.82" y2="337.33" style="stroke:#F0F0F0;stroke-width:9.72"/>
	<line x1="1375.82" y1="304.93" x2="1375.82" y2="240.13" style="stroke:#F0F0F0;stroke-width:9.72"/>
	<line x1="1375.82" y1="207.73" x2="1375.82" y2="142.93" style="stroke:#F0F0F0;stroke-width:9.72"/>
	<line x1="2017.91" y1="2637.73" x2="2017.91" y2="2572.93" style="stroke:#F0F0F0;stroke-width:9.72"/>
	<line x1="2017.91" y1="2540.53" x2="2017.91" y2="2475.73" style="stroke:#F0F0F0;stroke-width:9.72"/>
	<line x1="2017.91" y1="2443.33" x2="2017.91" y2="2378.53" style="stroke:#F0F0F0;stroke-width:9.72"/>
	<line x1="2017.91" y1="2346.13" x2="2017.91" y2="2281.33" style="stroke:#F0F0F0;stroke-width:9.72"/>
	<line x1="2017.91" y1="2248.93" x2="2017.91" y2="2184.13" style="stroke:#F0F0F0;stroke-width:9.72"/>
	<line x1="2017.91" y1="2151.73" x2="2017.91" y2="2086.93" style="stroke:#F0F0F0;stroke-width:9.72"/>
	<line x1="2017.91" y1="2054.53" x2="2017.91" y2="1989.73" style="stroke:#F0F0F0;stroke-width:9.72"/>
	<line x1="2017.91" y1="1957.33" x2="2017.91" y2="1892.53" style="stroke:#F0F0F0;stroke-width:9.72"/>
	<line x1="2017.91" y1="1860.13" x2="2017.91" y2="1795.33" style="stroke:#F0F0F0;stroke-width:9.72"/>
	<line x1="2017.91" y1="1762.93" x2="2017.91" y2="1698.13" style="stroke:#F0F0F0;stroke-width:9.72"/>
	<line x1="2017.91" y1="1665.73" x2="2017.91" y2="1600.93" style="stroke:#F0F0F0;stroke-width:9.72"/>
	<line x1="2017.91" y1="1568.53" x2="2017.91" y2="1503.73" style="stroke:#F0F0F0;stroke-width:9.72"/>
	<line x1="2017.91" y1="1471.33" x2="2017.91" y2="1406.53" style="stroke:#F0F0F0;stroke-width:9.72"/>
	<line x1="2017.91" y1="1374.13" x2="2017.91" y2="1309.33" style="stroke:#F0F0F0;stroke-width:9.72"/>
	<line x1="2017.91" y1="1276.93" x2="2017.91" y2="1212.13" style="stroke:#F0F0F0;stroke-width:9.72"/>
	<line x1="2017.91" y1="1179.73" x2="2017.91" y2="1114.93" style="stroke:#F0F0F0;stroke-width:9.72"/>
	<line x1="2017.91" y1="1082.53" x2="2017.91" y2="1017.73" style="stroke:#F0F0F0;stroke-width:9.72"/>
	<line x1="2017.91" y1="985.33" x2="2017.91" y2="920.53" style="stroke:#F0F0F0;stroke-width:9.72"/>
	<line x1="2017.91" y1="888.13" x2="2017.91" y2="823.33" style="stroke:#F0F0F0;stroke-width:9.72"/>
	<line x1="2017.91" y1="790.93" x2="2017.91" y2="726.13" style="stroke:#F0F0F0;stroke-width:9.72"/>
	<line x1="2017.91" y1="693.73" x2="2017.91" y2="628.93" style="stroke:#F0F0F0;stroke-width:9.72"/>
	<line x1="2017.91" y1="596.53" x2="2017.91" y2="531.73" style="stroke:#F0F0F0;stroke-width:9.72"/>
	<line x1="2017.91" y1="499.33" x2="2017.91" y2="434.53" style="stroke:#F0F0F0;stroke-width:9.72"/>
	<line x1="2017.91" y1="402.13" x2="2017.91" y2="337.33" style="stroke:#F0F0F0;stroke-width:9.72"/>
	<line x1="2017.91" y1="304.93" x2="2017.91" y2="240.13" style="stroke:#F0F0F0;stroke-width:9.72"/>
	<line x1="2017.91" y1="207.73" x2="2017.91" y2="142.93" style="stroke:#F0F0F0;stroke-width:9.72"/>
	<line x1="2660.01" y1="2637.73" x2="2660.01" y2="2572.93" style="stroke:#F0F0F0;stroke-width:9.72"/>
	<line x1="2660.01" y1="2540.53" x2="2660.01" y2="2475.73" style="stroke:#F0F0F0;stroke-width:9.72"/>
	<line x1="2660.01" y1="2443.33" x2="2660.01" y2="2378.53" style="stroke:#F0F0F0;stroke-width:9.72"/>
	<line x1="2660.01" y1="2346.13" x2="2660.01" y2="2281.33" style="stroke:#F0F0F0;stroke-width:9.72"/>
	<line x1="2660.01" y1="2248.93" x2="2660.01" y2="2184.13" style="stroke:#F0F0F0;stroke-width:9.72"/>
	<line x1="2660.01" y1="2151.73" x2="2660.01" y2="2086.93" style="stroke:#F0F0F0;stroke-width:9.72"/>
	<line x1="2660.01" y1="2054.53" x2="2660.01" y2="1989.73" style="stroke:#F0F0F0;stroke-width:9.72"/>
	<line x1="2660.01" y1="1957.33" x2="2660.01" y2="1892.53" style="stroke:#F0F0F0;stroke-width:9.72"/>
	<line x1="2660.01" y1="1860.13" x2="2660.01" y2="1795.33" style="stroke:#F0F0F0;stroke-width:9.72"/>
	<line x1="2660.01" y1="1762.93" x2="2660.01" y2="1698.13" style="stroke:#F0F0F0;stroke-width:9.72"/>
	<line x1="2660.01" y1="1665.73" x2="2660.01" y2="1600.93" style="stroke:#F0F0F0;stroke-width:9.72"/>
	<line x1="2660.01" y1="1568.53" x2="2660.01" y2="1503.73" style="stroke:#F0F0F0;stroke-width:9.72"/>
	<line x1="2660.01" y1="1471.33" x2="2660.01" y2="1406.53" style="stroke:#F0F0F0;stroke-width:9.72"/>
	<line x1="2660.01" y1="1374.13" x2="2660.01" y2="1309.33" style="stroke:#F0F0F0;stroke-width:9.72"/>
	<line x1="2660.01" y1="1276.93" x2="2660.01" y2="1212.13" style="stroke:#F0F0F0;stroke-width:9.72"/>
	<line x1="2660.01" y1="1179.73" x2="2660.01" y2="1114.93" style="stroke:#F0F0F0;stroke-width:9.72"/>
	<line x1="2660.01" y1="1082.53" x2="2660.01" y2="1017.73" style="stroke:#F0F0F0;stroke-width:9.72"/>
	<line x1="2660.01" y1="985.33" x2="2660.01" y2="920.53" style="stroke:#F0F0F0;stroke-width:9.72"/>
	<line x1="2660.01" y1="888.13" x2="2660.01" y2="823.33" style="stroke:#F0F0F0;stroke-width:9.72"/>
	<line x1="2660.01" y1="790.93" x2="2660.01" y2="726.13" style="stroke:#F0F0F0;stroke-width:9.72"/>
	<line x1="2660.01" y1="693.73" x2="2660.01" y2="628.93" style="stroke:#F0F0F0;stroke-width:9.72"/>
	<line x1="2660.01" y1="596.53" x2="2660.01" y2="531.73" style="stroke:#F0F0F0;stroke-width:9.72"/>
	<line x1="2660.01" y1="499.33" x2="2660.01" y2="434.53" style="stroke:#F0F0F0;stroke-width:9.72"/>
	<line x1="2660.01" y1="402.13" x2="2660.01" y2="337.33" style="stroke:#F0F0F0;stroke-width:9.72"/>
	<line x1="2660.01" y1="304.93" x2="2660.01" y2="240.13" style="stroke:#F0F0F0;stroke-width:9.72"/>
	<line x1="2660.01" y1="207.73" x2="2660.01" y2="142.93" style="stroke:#F0F0F0;stroke-width:9.72"/>
	<line x1="3302.10" y1="2637.73" x2="3302.10" y2="2572.93" style="stroke:#F0F0F0;stroke-width:9.72"/>
	<line x1="3302.10" y1="2540.53" x2="3302.10" y2="2475.73" style="stroke:#F0F0F0;stroke-width:9.72"/>
	<line x1="3302.10" y1="2443.33" x2="3302.10" y2="2378.53" style="stroke:#F0F0F0;stroke-width:9.72"/>
	<line x1="3302.10" y1="2346.13" x2="3302.10" y2="2281.33" style="stroke:#F0F0F0;stroke-width:9.72"/>
	<line x1="3302.10" y1="2248.93" x2="3302.10" y2="2184.13" style="stroke:#F0F0F0;stroke-width:9.72"/>
	<line x1="3302.10" y1="2151.73" x2="3302.10" y2="2086.93" style="stroke:#F0F0F0;stroke-width:9.72"/>
	<line x1="3302.10" y1="2054.53" x2="3302.10" y2="1989.73" style="stroke:#F0F0F0;stroke-width:9.72"/>
	<line x1="3302.10" y1="1957.33" x2="3302.10" y2="1892.53" style="stroke:#F0F0F0;stroke-width:9.72"/>
	<line x1="3302.10" y1="1860.13" x2="3302.10" y2="1795.33" style="stroke:#F0F0F0;stroke-width:9.72"/>
	<line x1="3302.10" y1="1762.93" x2="3302.10" y2="1698.13" style="stroke:#F0F0F0;stroke-width:9.72"/>
	<line x1="3302.10" y1="1665.73" x2="3302.10" y2="1600.93" style="stroke:#F0F0F0;stroke-width:9.72"/>
	<line x1="3302.10" y1="1568.53" x2="3302.10" y2="1503.73" style="stroke:#F0F0F0;stroke-width:9.72"/>
	<line x1="3302.10" y1="1471.33" x2="3302.10" y2="1406.53" style="stroke:#F0F0F0;stroke-width:9.72"/>
	<line x1="3302.10" y1="1374.13" x2="3302.10" y2="1309.33" style="stroke:#F0F0F0;stroke-width:9.72"/>
	<line x1="3302.10" y1="1276.93" x2="3302.10" y2="1212.13" style="stroke:#F0F0F0;stroke-width:9.72"/>
	<line x1="3302.10" y1="1179.73" x2="3302.10" y2="1114.93" style="stroke:#F0F0F0;stroke-width:9.72"/>
	<line x1="3302.10" y1="1082.53" x2="3302.10" y2="1017.73" style="stroke:#F0F0F0;stroke-width:9.72"/>
	<line x1="3302.10" y1="985.33" x2="3302.10" y2="920.53" style="stroke:#F0F0F0;stroke-width:9.72"/>
	<line x1="3302.10" y1="888.13" x2="3302.10" y2="823.33" style="stroke:#F0F0F0;stroke-width:9.72"/>
	<line x1="3302.10" y1="790.93" x2="3302.10" y2="726.13" style="stroke:#F0F0F0;stroke-width:9.72"/>
	<line x1="3302.10" y1="693.73" x2="3302.10" y2="628.93" style="stroke:#F0F0F0;stroke-width:9.72"/>
	<line x1="3302.10" y1="596.53" x2="3302.10" y2="531.73" style="stroke:#F0F0F0;stroke-width:9.72"/>
	<line x1="3302.10" y1="499.33" x2="3302.10" y2="434.53" style="stroke:#F0F0F0;stroke-width:9.72"/>
	<line x1="3302.10" y1="402.13" x2="3302.10" y2="337.33" style="stroke:#F0F0F0;stroke-width:9.72"/>
	<line x1="3302.10" y1="304.93" x2="3302.10" y2="240.13" style="stroke:#F0F0F0;stroke-width:9.72"/>
	<line x1="3302.10" y1="207.73" x2="3302.10" y2="142.93" style="stroke:#F0F0F0;stroke-width:9.72"/>
	<rect x="861.30" y="2260.74" width="464.23" height="376.99" style="fill:#FF8C19;fill-opacity:0.40"/>
	<rect x="863.73" y="2263.17" width="459.37" height="372.13" style="fill:none;stroke:#5FAAFF;stroke-width:4.86"/>
	<rect x="1325.53" y="1506.94" width="464.40" height="1130.79" style="fill:#FF8C19;fill-opacity:0.40"/>
	<rect x="1327.96" y="1509.37" width="459.54" height="1125.93" style="fill:none;stroke:#5FAAFF;stroke-width:4.86"/>
	<rect x="1789.93" y="375.97" width="464.23" height="2261.76" style="fill:#FF8C19;fill-opacity:0.40"/>
	<rect x="1792.36" y="378.40" width="459.37" height="2256.90" style="fill:none;stroke:#5FAAFF;stroke-width:4.86"/>
	<rect x="2254.16" y="1506.94" width="464.23" height="1130.79" style="fill:#FF8C19;fill-opacity:0.40"/>
	<rect x="2256.59" y="1509.37" width="459.37" height="1125.93" style="fill:none;stroke:#5FAAFF;stroke-width:4.86"/>
	<rect x="2718.39" y="1883.76" width="464.23" height="753.97" style="fill:#FF8C19;fill-opacity:0.40"/>
	<rect x="2720.82" y="1886.19" width="459.37" height="749.11" style="fill:none;stroke:#5FAAFF;stroke-width:4.86"/>
	<path d=" M861.30 2494.46 L869.06 2489.57 L876.83 2484.68 L884.59 2479.44 L892.35 2474.04 L900.11 2468.64 L907.88 2463.07 L915.64 2457.34 L923.40 2451.43 L931.16 2445.36 L938.93 2439.28 L946.69 2432.87 L954.45 2426.46 L962.21 2419.71 L969.98 2412.96 L977.74 2405.87 L985.50 2398.78 L993.26 2391.53 L1001.03 2383.93 L1008.79 2376.34 L1016.55 2368.57 L1024.31 2360.48 L1032.08 2352.38 L1039.84 2343.94 L1047.60 2335.50 L1055.36 2326.73 L1063.13 2317.95 L1070.89 2308.84 L1078.65 2299.56 L1086.41 2290.11 L1094.18 2280.49 L1101.94 2270.70 L1109.70 2260.57 L1117.46 2250.45 L1125.22 2239.99 L1132.99 2229.53 L1140.75 2218.73 L1148.51 2207.76 L1156.28 2196.62 L1164.04 2185.31 L1171.80 2173.67 L1179.56 2162.03 L1187.33 2150.04 L1195.09 2137.89 L1202.85 2125.74 L1210.61 2113.26 L1218.38 2100.43 L1226.14 2087.61 L1233.90 2074.61 L1241.66 2061.45 L1249.43 2047.95 L1257.19 2034.28 L1264.95 2020.61 L1272.71 2006.61 L1280.47 1992.43 L1288.24 1978.26 L1296.00 1963.74 L1303.76 1949.06 L1311.53 1934.21 L1319.29 1919.36 L1327.05 1904.18 L1334.81 1888.82 L1342.58 1873.46 L1350.34 1857.77 L1358.10 1842.08 L1365.86 1826.21 L1373.63 1810.18 L1381.39 1793.98 L1389.15 1777.78 L1396.91 1761.41 L1404.68 1744.88 L1412.44 1728.17 L1420.20 1711.46 L1427.96 1694.59 L1435.73 1677.71 L1443.49 1660.67 L1451.25 1643.46 L1459.01 1626.24 L1466.78 1609.03 L1474.54 1591.65 L1482.30 1574.10 L1490.06 1556.72 L1497.83 1539.17 L1505.59 1521.62 L1513.35 1503.90 L1521.11 1486.35 L1528.88 1468.63 L1536.64 1451.08 L1544.40 1433.36 L1552.16 1415.64 L1559.93 1397.93 L1567.69 1380.38 L1575.45 1362.66 L1583.21 1345.11 L1590.98 1327.56 L1598.74 1310.01 L1606.50 1292.63 L1614.26 1275.08 L1622.03 1257.86 L1629.79 1240.65 L1637.55 1223.44 L1645.31 1206.39 L1653.08 1189.52 L1660.84 1172.64 L1668.60 1155.94 L1676.36 1139.40 L1684.13 1123.03 L1691.89 1106.66 L1699.65 1090.63 L1707.41 1074.60 L1715.18 1058.91 L1722.94 1043.38 L1730.70 1027.86 L1738.46 1012.84 L1746.23 997.82 L1753.99 982.97 L1761.75 968.46 L1769.51 954.28 L1777.28 940.11 L1785.04 926.44 L1792.80 912.94 L1800.56 899.61 L1808.49 886.61 L1816.26 873.96 L1824.02 861.47 L1831.78 849.49 L1839.54 837.68 L1847.31 826.20 L1855.07 814.89 L1862.83 804.09 L1870.59 793.63 L1878.36 783.51 L1886.12 773.72 L1893.88 764.27 L1901.64 755.16 L1909.41 746.38 L1917.17 737.94 L1924.93 730.01 L1932.69 722.42 L1940.46 715.16 L1948.22 708.24 L1955.98 701.83 L1963.74 695.76 L1971.51 690.19 L1979.27 684.96 L1987.03 680.06 L1994.79 675.68 L2002.56 671.63 L2010.32 668.08 L2018.08 664.88 L2025.84 662.18 L2033.61 659.81 L2041.37 657.96 L2049.13 656.44 L2056.89 655.43 L2064.66 654.92 L2072.42 654.75 L2080.18 654.92 L2087.94 655.59 L2095.71 656.78 L2103.47 658.29 L2111.23 660.15 L2118.99 662.51 L2126.76 665.38 L2134.52 668.59 L2142.28 672.30 L2150.04 676.35 L2157.81 680.74 L2165.57 685.63 L2173.33 691.03 L2181.09 696.60 L2188.86 702.84 L2196.62 709.26 L2204.38 716.18 L2212.14 723.43 L2219.91 731.19 L2227.67 739.13 L2235.43 747.56 L2243.19 756.34 L2250.96 765.62 L2258.72 775.07 L2266.48 784.86 L2274.24 795.15 L2282.01 805.78 L2289.77 816.58 L2297.53 827.72 L2305.29 839.36 L2313.06 851.18 L2320.82 863.32 L2328.58 875.81 L2336.34 888.47 L2344.11 901.46 L2351.87 914.79 L2359.63 928.46 L2367.39 942.30 L2375.16 956.31 L2382.92 970.65 L2390.68 985.16 L2398.44 1000.01 L2406.21 1015.03 L2413.97 1030.22 L2421.73 1045.57 L2429.49 1061.27 L2437.26 1076.96 L2445.02 1092.99 L2452.78 1109.03 L2460.54 1125.39 L2468.31 1141.76 L2476.07 1158.47 L2483.83 1175.18 L2491.59 1191.88 L2499.36 1208.93 L2507.12 1225.97 L2514.88 1243.18 L2522.64 1260.39 L2530.41 1277.78 L2538.17 1295.16 L2545.93 1312.54 L2553.69 1330.09 L2561.46 1347.64 L2569.22 1365.19 L2576.98 1382.91 L2584.74 1400.63 L2592.51 1418.18 L2600.27 1435.89 L2608.03 1453.61 L2615.79 1471.33 L2623.56 1488.88 L2631.32 1506.60 L2639.08 1524.15 L2646.84 1541.70 L2654.61 1559.25 L2662.37 1576.80 L2670.13 1594.18 L2677.89 1611.56 L2685.66 1628.78 L2693.42 1645.99 L2701.18 1663.03 L2708.94 1680.08 L2716.71 1697.12 L2724.47 1713.99 L2732.23 1730.70 L2739.99 1747.24 L2747.76 1763.78 L2755.52 1780.14 L2763.28 1796.51 L2771.04 1812.54 L2778.81 1828.58 L2786.57 1844.44 L2794.33 1860.13 L2802.09 1875.66 L2809.86 1891.18 L2817.62 1906.37 L2825.38 1921.56 L2833.14 1936.41 L2840.91 1951.26 L2848.67 1965.94 L2856.43 1980.28 L2864.19 1994.63 L2871.96 2008.63 L2879.72 2022.64 L2887.48 2036.31 L2895.24 2049.98 L2903.01 2063.31 L2910.77 2076.47 L2918.53 2089.46 L2926.29 2102.29 L2934.06 2114.94 L2941.82 2127.43 L2949.58 2139.75 L2957.34 2151.90 L2965.28 2163.71 L2973.04 2175.36 L2980.80 2186.83 L2988.56 2198.14 L2996.33 2209.28 L3004.09 2220.24 L3011.85 2231.04 L3019.61 2241.51 L3027.38 2251.97 L3035.14 2262.09 L3042.90 2272.05 L3050.66 2281.84 L3058.43 2291.46 L3066.19 2300.91 L3073.95 2310.19 L3081.71 2319.13 L3089.48 2328.07 L3097.24 2336.68 L3105.00 2345.29 L3112.76 2353.56 L3120.53 2361.66 L3128.29 2369.76 L3136.05 2377.52 L3143.81 2385.11 L3151.58 2392.54 L3159.34 2399.79 L3167.10 2407.05 L3174.86 2413.97 L3182.63 2420.72" stroke-linejoin="round" style="fill:none;stroke:#000000;stroke-width:9.72"/>
	<rect x="981.62" y="2145.82" width="355.73" height="491.91" style="fill:#198DFF;fill-opacity:0.50"/>
	<rect x="984.05" y="2148.25" width="350.87" height="487.05" style="fill:none;stroke:#5FAAFF;stroke-width:4.86"/>
	<rect x="1337.34" y="1162.01" width="355.89" height="1475.72" style="fill:#198DFF;fill-opacity:0.50"/>
	<rect x="1339.77" y="1164.44" width="351.03" height="1470.86" style="fill:none;stroke:#5FAAFF;stroke-width:4.86"/>
	<rect x="1693.24" y="915.97" width="355.73" height="1721.76" style="fill:#198DFF;fill-opacity:0.50"/>
	<rect x="1695.67" y="918.40" width="350.87" height="1716.90" style="fill:none;stroke:#5FAAFF;stroke-width:4.86"/>
	<rect x="2048.96" y="424.07" width="355.72" height="2213.66" style="fill:#198DFF;fill-opacity:0.50"/>
	<rect x="2051.39" y="426.50" width="350.86" height="2208.80" style="fill:none;stroke:#5FAAFF;stroke-width:4.86"/>
	<rect x="2404.69" y="1162.01" width="355.72" height="1475.72" style="fill:#198DFF;fill-opacity:0.50"/>
	<rect x="2407.12" y="1164.44" width="350.86" height="1470.86" style="fill:none;stroke:#5FAAFF;stroke-width:4.86"/>
	<line x1="557.89" y1="2637.73" x2="557.89" y2="113.40" style="stroke:#000000;stroke-width:6.48"/>
	<line x1="557.89" y1="2637.73" x2="513.00" y2="2637.73" style="stroke:#000000;stroke-width:6.48"/>
	<text x="490.39" y="2677.17" style="font-family:'Helvetica';font-size:112.56px;fill:#000000" text-anchor="end">0</text>
	<line x1="557.89" y1="1820.14" x2="513.00" y2="1820.14" style="stroke:#000000;stroke-width:6.48"/>
	<text x="490.39" y="1859.57" style="font-family:'Helvetica';font-size:112.56px;fill:#000000" text-anchor="end">.01</text>
	<line x1="557.89" y1="1002.38" x2="513.00" y2="1002.38" style="stroke:#000000;stroke-width:6.48"/>
	<text x="490.39" y="1041.81" style="font-family:'Helvetica';font-size:112.56px;fill:#000000" text-anchor="end">.02</text>
	<line x1="557.89" y1="184.61" x2="513.00" y2="184.61" style="stroke:#000000;stroke-width:6.48"/>
	<text x="490.39" y="224.05" style="font-family:'Helvetica';font-size:112.56px;fill:#000000" text-anchor="end">.03</text>
	<text x="214.55" y="1375.65" style="font-family:'Helvetica';font-size:112.56px;fill:#000000" transform="rotate(-90 214.55,1375.65)" text-anchor="middle">Density</text>
	<line x1="557.89" y1="2637.73" x2="3373.48" y2="2637.73" style="stroke:#000000;stroke-width:6.48"/>
	<line x1="733.73" y1="2637.73" x2="733.73" y2="2682.79" style="stroke:#000000;stroke-width:6.48"/>
	<text x="733.73" y="2783.94" style="font-family:'Helvetica';font-size:112.56px;fill:#000000" text-anchor="middle">20</text>
	<line x1="1375.82" y1="2637.73" x2="1375.82" y2="2682.79" style="stroke:#000000;stroke-width:6.48"/>
	<text x="1375.82" y="2783.94" style="font-family:'Helvetica';font-size:112.56px;fill:#000000" text-anchor="middle">40</text>
	<line x1="2017.91" y1="2637.73" x2="2017.91" y2="2682.79" style="stroke:#000000;stroke-width:6.48"/>
	<text x="2017.91" y="2783.94" style="font-family:'Helvetica';font-size:112.56px;fill:#000000" text-anchor="middle">60</text>
	<line x1="2660.01" y1="2637.73" x2="2660.01" y2="2682.79" style="stroke:#000000;stroke-width:6.48"/>
	<text x="2660.01" y="2783.94" style="font-family:'Helvetica';font-size:112.56px;fill:#000000" text-anchor="middle">80</text>
	<line x1="3302.10" y1="2637.73" x2="3302.10" y2="2682.79" style="stroke:#000000;stroke-width:6.48"/>
	<text x="3302.10" y="2783.94" style="font-family:'Helvetica';font-size:112.56px;fill:#000000" text-anchor="middle">100</text>
	<text x="1965.60" y="2941.38" style="font-family:'Helvetica';font-size:112.56px;fill:#000000" text-anchor="middle">age</text>
	<rect x="3412.29" y="1113.24" width="1835.49" height="524.64" style="fill:#FFFFFF"/>
	<rect x="3415.53" y="1116.48" width="1829.01" height="518.16" style="fill:none;stroke:#FFFFFF;stroke-width:6.48"/>
	<rect x="3460.89" y="1161.84" width="259.20" height="112.56" style="fill:#FF8C19;fill-opacity:0.40"/>
	<rect x="3463.32" y="1164.27" width="254.34" height="107.70" style="fill:none;stroke:#5FAAFF;stroke-width:4.86"/>
	<line x1="3460.89" y1="1375.65" x2="3720.09" y2="1375.65" style="stroke:#000000;stroke-width:9.72"/>
	<rect x="3460.89" y="1476.90" width="259.20" height="112.39" style="fill:#198DFF;fill-opacity:0.50"/>
	<rect x="3463.32" y="1479.33" width="254.34" height="107.53" style="fill:none;stroke:#5FAAFF;stroke-width:4.86"/>
	<text x="3787.59" y="1257.47" style="font-family:'Helvetica';font-size:112.56px;fill:#000000">Sampled from Normal</text>
	<text x="3787.59" y="1415.09" style="font-family:'Helvetica';font-size:112.56px;fill:#000000">Theoretical Normal</text>
	<text x="3787.59" y="1572.53" style="font-family:'Helvetica';font-size:112.56px;fill:#000000">Sampled from t-distribution</text>
	<text x="577.29" y="3080.13" style="font-family:'Helvetica';font-size:89.94px;fill:#000000">Based on simulated data</text>
</svg>
