<?xml version="1.0" encoding="UTF-8" standalone="no"?>
<!-- This is a Stata 18.0 generated SVG file (http://www.stata.com) -->

<svg version="1.1" width="7.500in" height="4.500in" viewBox="0 0 5400 3240" xmlns="http://www.w3.org/2000/svg" xmlns:xlink="http://www.w3.org/1999/xlink">
	<desc>Stata Graph - Graph</desc>
	<rect x="0" y="0" width="5400" height="3240" style="fill:#FFFFFF;stroke:none"/>
	<rect x="0.00" y="0.00" width="5400.00" height="3240.00" style="fill:#FFFFFF"/>
	<rect x="3.24" y="3.24" width="5393.52" height="3233.52" style="fill:none;stroke:#FFFFFF;stroke-width:6.48"/>
	<rect x="557.89" y="113.40" width="2815.59" height="2524.33" style="fill:#FFFFFF"/>
	<rect x="561.13" y="116.64" width="2809.11" height="2517.85" style="fill:none;stroke:#FFFFFF;stroke-width:6.48"/>
	<line x1="557.89" y1="2637.73" x2="622.69" y2="2637.73" style="stroke:#F0F0F0;stroke-width:9.72"/>
	<line x1="655.09" y1="2637.73" x2="719.89" y2="2637.73" style="stroke:#F0F0F0;stroke-width:9.72"/>
	<line x1="752.29" y1="2637.73" x2="817.09" y2="2637.73" style="stroke:#F0F0F0;stroke-width:9.72"/>
	<line x1="849.49" y1="2637.73" x2="914.29" y2="2637.73" style="stroke:#F0F0F0;stroke-width:9.72"/>
	<line x1="946.69" y1="2637.73" x2="1011.49" y2="2637.73" style="stroke:#F0F0F0;stroke-width:9.72"/>
	<line x1="1043.89" y1="2637.73" x2="1108.69" y2="2637.73" style="stroke:#F0F0F0;stroke-width:9.72"/>
	<line x1="1141.09" y1="2637.73" x2="1205.89" y2="2637.73" style="stroke:#F0F0F0;stroke-width:9.72"/>
	<line x1="1238.29" y1="2637.73" x2="1303.09" y2="2637.73" style="stroke:#F0F0F0;stroke-width:9.72"/>
	<line x1="1335.49" y1="2637.73" x2="1400.29" y2="2637.73" style="stroke:#F0F0F0;stroke-width:9.72"/>
	<line x1="1432.69" y1="2637.73" x2="1497.49" y2="2637.73" style="stroke:#F0F0F0;stroke-width:9.72"/>
	<line x1="1529.89" y1="2637.73" x2="1594.69" y2="2637.73" style="stroke:#F0F0F0;stroke-width:9.72"/>
	<line x1="1627.09" y1="2637.73" x2="1691.89" y2="2637.73" style="stroke:#F0F0F0;stroke-width:9.72"/>
	<line x1="1724.29" y1="2637.73" x2="1789.09" y2="2637.73" style="stroke:#F0F0F0;stroke-width:9.72"/>
	<line x1="1821.49" y1="2637.73" x2="1886.29" y2="2637.73" style="stroke:#F0F0F0;stroke-width:9.72"/>
	<line x1="1918.69" y1="2637.73" x2="1983.49" y2="2637.73" style="stroke:#F0F0F0;stroke-width:9.72"/>
	<line x1="2015.89" y1="2637.73" x2="2080.69" y2="2637.73" style="stroke:#F0F0F0;stroke-width:9.72"/>
	<line x1="2113.09" y1="2637.73" x2="2177.89" y2="2637.73" style="stroke:#F0F0F0;stroke-width:9.72"/>
	<line x1="2210.29" y1="2637.73" x2="2275.09" y2="2637.73" style="stroke:#F0F0F0;stroke-width:9.72"/>
	<line x1="2307.49" y1="2637.73" x2="2372.29" y2="2637.73" style="stroke:#F0F0F0;stroke-width:9.72"/>
	<line x1="2404.69" y1="2637.73" x2="2469.49" y2="2637.73" style="stroke:#F0F0F0;stroke-width:9.72"/>
	<line x1="2501.89" y1="2637.73" x2="2566.69" y2="2637.73" style="stroke:#F0F0F0;stroke-width:9.72"/>
	<line x1="2599.09" y1="2637.73" x2="2663.89" y2="2637.73" style="stroke:#F0F0F0;stroke-width:9.72"/>
	<line x1="2696.29" y1="2637.73" x2="2761.09" y2="2637.73" style="stroke:#F0F0F0;stroke-width:9.72"/>
	<line x1="2793.49" y1="2637.73" x2="2858.29" y2="2637.73" style="stroke:#F0F0F0;stroke-width:9.72"/>
	<line x1="2890.69" y1="2637.73" x2="2955.49" y2="2637.73" style="stroke:#F0F0F0;stroke-width:9.72"/>
	<line x1="2987.89" y1="2637.73" x2="3052.69" y2="2637.73" style="stroke:#F0F0F0;stroke-width:9.72"/>
	<line x1="3085.09" y1="2637.73" x2="3149.89" y2="2637.73" style="stroke:#F0F0F0;stroke-width:9.72"/>
	<line x1="3182.29" y1="2637.73" x2="3247.09" y2="2637.73" style="stroke:#F0F0F0;stroke-width:9.72"/>
	<line x1="3279.49" y1="2637.73" x2="3344.29" y2="2637.73" style="stroke:#F0F0F0;stroke-width:9.72"/>
	<line x1="557.89" y1="1820.14" x2="622.69" y2="1820.14" style="stroke:#F0F0F0;stroke-width:9.72"/>
	<line x1="655.09" y1="1820.14" x2="719.89" y2="1820.14" style="stroke:#F0F0F0;stroke-width:9.72"/>
	<line x1="752.29" y1="1820.14" x2="817.09" y2="1820.14" style="stroke:#F0F0F0;stroke-width:9.72"/>
	<line x1="849.49" y1="1820.14" x2="914.29" y2="1820.14" style="stroke:#F0F0F0;stroke-width:9.72"/>
	<line x1="946.69" y1="1820.14" x2="1011.49" y2="1820.14" style="stroke:#F0F0F0;stroke-width:9.72"/>
	<line x1="1043.89" y1="1820.14" x2="1108.69" y2="1820.14" style="stroke:#F0F0F0;stroke-width:9.72"/>
	<line x1="1141.09" y1="1820.14" x2="1205.89" y2="1820.14" style="stroke:#F0F0F0;stroke-width:9.72"/>
	<line x1="1238.29" y1="1820.14" x2="1303.09" y2="1820.14" style="stroke:#F0F0F0;stroke-width:9.72"/>
	<line x1="1335.49" y1="1820.14" x2="1400.29" y2="1820.14" style="stroke:#F0F0F0;stroke-width:9.72"/>
	<line x1="1432.69" y1="1820.14" x2="1497.49" y2="1820.14" style="stroke:#F0F0F0;stroke-width:9.72"/>
	<line x1="1529.89" y1="1820.14" x2="1594.69" y2="1820.14" style="stroke:#F0F0F0;stroke-width:9.72"/>
	<line x1="1627.09" y1="1820.14" x2="1691.89" y2="1820.14" style="stroke:#F0F0F0;stroke-width:9.72"/>
	<line x1="1724.29" y1="1820.14" x2="1789.09" y2="1820.14" style="stroke:#F0F0F0;stroke-width:9.72"/>
	<line x1="1821.49" y1="1820.14" x2="1886.29" y2="1820.14" style="stroke:#F0F0F0;stroke-width:9.72"/>
	<line x1="1918.69" y1="1820.14" x2="1983.49" y2="1820.14" style="stroke:#F0F0F0;stroke-width:9.72"/>
	<line x1="2015.89" y1="1820.14" x2="2080.69" y2="1820.14" style="stroke:#F0F0F0;stroke-width:9.72"/>
	<line x1="2113.09" y1="1820.14" x2="2177.89" y2="1820.14" style="stroke:#F0F0F0;stroke-width:9.72"/>
	<line x1="2210.29" y1="1820.14" x2="2275.09" y2="1820.14" style="stroke:#F0F0F0;stroke-width:9.72"/>
	<line x1="2307.49" y1="1820.14" x2="2372.29" y2="1820.14" style="stroke:#F0F0F0;stroke-width:9.72"/>
	<line x1="2404.69" y1="1820.14" x2="2469.49" y2="1820.14" style="stroke:#F0F0F0;stroke-width:9.72"/>
	<line x1="2501.89" y1="1820.14" x2="2566.69" y2="1820.14" style="stroke:#F0F0F0;stroke-width:9.72"/>
	<line x1="2599.09" y1="1820.14" x2="2663.89" y2="1820.14" style="stroke:#F0F0F0;stroke-width:9.72"/>
	<line x1="2696.29" y1="1820.14" x2="2761.09" y2="1820.14" style="stroke:#F0F0F0;stroke-width:9.72"/>
	<line x1="2793.49" y1="1820.14" x2="2858.29" y2="1820.14" style="stroke:#F0F0F0;stroke-width:9.72"/>
	<line x1="2890.69" y1="1820.14" x2="2955.49" y2="1820.14" style="stroke:#F0F0F0;stroke-width:9.72"/>
	<line x1="2987.89" y1="1820.14" x2="3052.69" y2="1820.14" style="stroke:#F0F0F0;stroke-width:9.72"/>
	<line x1="3085.09" y1="1820.14" x2="3149.89" y2="1820.14" style="stroke:#F0F0F0;stroke-width:9.72"/>
	<line x1="3182.29" y1="1820.14" x2="3247.09" y2="1820.14" style="stroke:#F0F0F0;stroke-width:9.72"/>
	<line x1="3279.49" y1="1820.14" x2="3344.29" y2="1820.14" style="stroke:#F0F0F0;stroke-width:9.72"/>
	<line x1="557.89" y1="1002.38" x2="622.69" y2="1002.38" style="stroke:#F0F0F0;stroke-width:9.72"/>
	<line x1="655.09" y1="1002.38" x2="719.89" y2="1002.38" style="stroke:#F0F0F0;stroke-width:9.72"/>
	<line x1="752.29" y1="1002.38" x2="817.09" y2="1002.38" style="stroke:#F0F0F0;stroke-width:9.72"/>
	<line x1="849.49" y1="1002.38" x2="914.29" y2="1002.38" style="stroke:#F0F0F0;stroke-width:9.72"/>
	<line x1="946.69" y1="1002.38" x2="1011.49" y2="1002.38" style="stroke:#F0F0F0;stroke-width:9.72"/>
	<line x1="1043.89" y1="1002.38" x2="1108.69" y2="1002.38" style="stroke:#F0F0F0;stroke-width:9.72"/>
	<line x1="1141.09" y1="1002.38" x2="1205.89" y2="1002.38" style="stroke:#F0F0F0;stroke-width:9.72"/>
	<line x1="1238.29" y1="1002.38" x2="1303.09" y2="1002.38" style="stroke:#F0F0F0;stroke-width:9.72"/>
	<line x1="1335.49" y1="1002.38" x2="1400.29" y2="1002.38" style="stroke:#F0F0F0;stroke-width:9.72"/>
	<line x1="1432.69" y1="1002.38" x2="1497.49" y2="1002.38" style="stroke:#F0F0F0;stroke-width:9.72"/>
	<line x1="1529.89" y1="1002.38" x2="1594.69" y2="1002.38" style="stroke:#F0F0F0;stroke-width:9.72"/>
	<line x1="1627.09" y1="1002.38" x2="1691.89" y2="1002.38" style="stroke:#F0F0F0;stroke-width:9.72"/>
	<line x1="1724.29" y1="1002.38" x2="1789.09" y2="1002.38" style="stroke:#F0F0F0;stroke-width:9.72"/>
	<line x1="1821.49" y1="1002.38" x2="1886.29" y2="1002.38" style="stroke:#F0F0F0;stroke-width:9.72"/>
	<line x1="1918.69" y1="1002.38" x2="1983.49" y2="1002.38" style="stroke:#F0F0F0;stroke-width:9.72"/>
	<line x1="2015.89" y1="1002.38" x2="2080.69" y2="1002.38" style="stroke:#F0F0F0;stroke-width:9.72"/>
	<line x1="2113.09" y1="1002.38" x2="2177.89" y2="1002.38" style="stroke:#F0F0F0;stroke-width:9.72"/>
	<line x1="2210.29" y1="1002.38" x2="2275.09" y2="1002.38" style="stroke:#F0F0F0;stroke-width:9.72"/>
	<line x1="2307.49" y1="1002.38" x2="2372.29" y2="1002.38" style="stroke:#F0F0F0;stroke-width:9.72"/>
	<line x1="2404.69" y1="1002.38" x2="2469.49" y2="1002.38" style="stroke:#F0F0F0;stroke-width:9.72"/>
	<line x1="2501.89" y1="1002.38" x2="2566.69" y2="1002.38" style="stroke:#F0F0F0;stroke-width:9.72"/>
	<line x1="2599.09" y1="1002.38" x2="2663.89" y2="1002.38" style="stroke:#F0F0F0;stroke-width:9.72"/>
	<line x1="2696.29" y1="1002.38" x2="2761.09" y2="1002.38" style="stroke:#F0F0F0;stroke-width:9.72"/>
	<line x1="2793.49" y1="1002.38" x2="2858.29" y2="1002.38" style="stroke:#F0F0F0;stroke-width:9.72"/>
	<line x1="2890.69" y1="1002.38" x2="2955.49" y2="1002.38" style="stroke:#F0F0F0;stroke-width:9.72"/>
	<line x1="2987.89" y1="1002.38" x2="3052.69" y2="1002.38" style="stroke:#F0F0F0;stroke-width:9.72"/>
	<line x1="3085.09" y1="1002.38" x2="3149.89" y2="1002.38" style="stroke:#F0F0F0;stroke-width:9.72"/>
	<line x1="3182.29" y1="1002.38" x2="3247.09" y2="1002.38" style="stroke:#F0F0F0;stroke-width:9.72"/>
	<line x1="3279.49" y1="1002.38" x2="3344.29" y2="1002.38" style="stroke:#F0F0F0;stroke-width:9.72"/>
	<line x1="557.89" y1="184.61" x2="622.69" y2="184.61" style="stroke:#F0F0F0;stroke-width:9.72"/>
	<line x1="655.09" y1="184.61" x2="719.89" y2="184.61" style="stroke:#F0F0F0;stroke-width:9.72"/>
	<line x1="752.29" y1="184.61" x2="817.09" y2="184.61" style="stroke:#F0F0F0;stroke-width:9.72"/>
	<line x1="849.49" y1="184.61" x2="914.29" y2="184.61" style="stroke:#F0F0F0;stroke-width:9.72"/>
	<line x1="946.69" y1="184.61" x2="1011.49" y2="184.61" style="stroke:#F0F0F0;stroke-width:9.72"/>
	<line x1="1043.89" y1="184.61" x2="1108.69" y2="184.61" style="stroke:#F0F0F0;stroke-width:9.72"/>
	<line x1="1141.09" y1="184.61" x2="1205.89" y2="184.61" style="stroke:#F0F0F0;stroke-width:9.72"/>
	<line x1="1238.29" y1="184.61" x2="1303.09" y2="184.61" style="stroke:#F0F0F0;stroke-width:9.72"/>
	<line x1="1335.49" y1="184.61" x2="1400.29" y2="184.61" style="stroke:#F0F0F0;stroke-width:9.72"/>
	<line x1="1432.69" y1="184.61" x2="1497.49" y2="184.61" style="stroke:#F0F0F0;stroke-width:9.72"/>
	<line x1="1529.89" y1="184.61" x2="1594.69" y2="184.61" style="stroke:#F0F0F0;stroke-width:9.72"/>
	<line x1="1627.09" y1="184.61" x2="1691.89" y2="184.61" style="stroke:#F0F0F0;stroke-width:9.72"/>
	<line x1="1724.29" y1="184.61" x2="1789.09" y2="184.61" style="stroke:#F0F0F0;stroke-width:9.72"/>
	<line x1="1821.49" y1="184.61" x2="1886.29" y2="184.61" style="stroke:#F0F0F0;stroke-width:9.72"/>
	<line x1="1918.69" y1="184.61" x2="1983.49" y2="184.61" style="stroke:#F0F0F0;stroke-width:9.72"/>
	<line x1="2015.89" y1="184.61" x2="2080.69" y2="184.61" style="stroke:#F0F0F0;stroke-width:9.72"/>
	<line x1="2113.09" y1="184.61" x2="2177.89" y2="184.61" style="stroke:#F0F0F0;stroke-width:9.72"/>
	<line x1="2210.29" y1="184.61" x2="2275.09" y2="184.61" style="stroke:#F0F0F0;stroke-width:9.72"/>
	<line x1="2307.49" y1="184.61" x2="2372.29" y2="184.61" style="stroke:#F0F0F0;stroke-width:9.72"/>
	<line x1="2404.69" y1="184.61" x2="2469.49" y2="184.61" style="stroke:#F0F0F0;stroke-width:9.72"/>
	<line x1="2501.89" y1="184.61" x2="2566.69" y2="184.61" style="stroke:#F0F0F0;stroke-width:9.72"/>
	<line x1="2599.09" y1="184.61" x2="2663.89" y2="184.61" style="stroke:#F0F0F0;stroke-width:9.72"/>
	<line x1="2696.29" y1="184.61" x2="2761.09" y2="184.61" style="stroke:#F0F0F0;stroke-width:9.72"/>
	<line x1="2793.49" y1="184.61" x2="2858.29" y2="184.61" style="stroke:#F0F0F0;stroke-width:9.72"/>
	<line x1="2890.69" y1="184.61" x2="2955.49" y2="184.61" style="stroke:#F0F0F0;stroke-width:9.72"/>
	<line x1="2987.89" y1="184.61" x2="3052.69" y2="184.61" style="stroke:#F0F0F0;stroke-width:9.72"/>
	<line x1="3085.09" y1="184.61" x2="3149.89" y2="184.61" style="stroke:#F0F0F0;stroke-width:9.72"/>
	<line x1="3182.29" y1="184.61" x2="3247.09" y2="184.61" style="stroke:#F0F0F0;stroke-width:9.72"/>
	<line x1="3279.49" y1="184.61" x2="3344.29" y2="184.61" style="stroke:#F0F0F0;stroke-width:9.72"/>
	<line x1="847.46" y1="2637.73" x2="847.46" y2="2572.93" style="stroke:#F0F0F0;stroke-width:9.72"/>
	<line x1="847.46" y1="2540.53" x2="847.46" y2="2475.73" style="stroke:#F0F0F0;stroke-width:9.72"/>
	<line x1="847.46" y1="2443.33" x2="847.46" y2="2378.53" style="stroke:#F0F0F0;stroke-width:9.72"/>
	<line x1="847.46" y1="2346.13" x2="847.46" y2="2281.33" style="stroke:#F0F0F0;stroke-width:9.72"/>
	<line x1="847.46" y1="2248.93" x2="847.46" y2="2184.13" style="stroke:#F0F0F0;stroke-width:9.72"/>
	<line x1="847.46" y1="2151.73" x2="847.46" y2="2086.93" style="stroke:#F0F0F0;stroke-width:9.72"/>
	<line x1="847.46" y1="2054.53" x2="847.46" y2="1989.73" style="stroke:#F0F0F0;stroke-width:9.72"/>
	<line x1="847.46" y1="1957.33" x2="847.46" y2="1892.53" style="stroke:#F0F0F0;stroke-width:9.72"/>
	<line x1="847.46" y1="1860.13" x2="847.46" y2="1795.33" style="stroke:#F0F0F0;stroke-width:9.72"/>
	<line x1="847.46" y1="1762.93" x2="847.46" y2="1698.13" style="stroke:#F0F0F0;stroke-width:9.72"/>
	<line x1="847.46" y1="1665.73" x2="847.46" y2="1600.93" style="stroke:#F0F0F0;stroke-width:9.72"/>
	<line x1="847.46" y1="1568.53" x2="847.46" y2="1503.73" style="stroke:#F0F0F0;stroke-width:9.72"/>
	<line x1="847.46" y1="1471.33" x2="847.46" y2="1406.53" style="stroke:#F0F0F0;stroke-width:9.72"/>
	<line x1="847.46" y1="1374.13" x2="847.46" y2="1309.33" style="stroke:#F0F0F0;stroke-width:9.72"/>
	<line x1="847.46" y1="1276.93" x2="847.46" y2="1212.13" style="stroke:#F0F0F0;stroke-width:9.72"/>
	<line x1="847.46" y1="1179.73" x2="847.46" y2="1114.93" style="stroke:#F0F0F0;stroke-width:9.72"/>
	<line x1="847.46" y1="1082.53" x2="847.46" y2="1017.73" style="stroke:#F0F0F0;stroke-width:9.72"/>
	<line x1="847.46" y1="985.33" x2="847.46" y2="920.53" style="stroke:#F0F0F0;stroke-width:9.72"/>
	<line x1="847.46" y1="888.13" x2="847.46" y2="823.33" style="stroke:#F0F0F0;stroke-width:9.72"/>
	<line x1="847.46" y1="790.93" x2="847.46" y2="726.13" style="stroke:#F0F0F0;stroke-width:9.72"/>
	<line x1="847.46" y1="693.73" x2="847.46" y2="628.93" style="stroke:#F0F0F0;stroke-width:9.72"/>
	<line x1="847.46" y1="596.53" x2="847.46" y2="531.73" style="stroke:#F0F0F0;stroke-width:9.72"/>
	<line x1="847.46" y1="499.33" x2="847.46" y2="434.53" style="stroke:#F0F0F0;stroke-width:9.72"/>
	<line x1="847.46" y1="402.13" x2="847.46" y2="337.33" style="stroke:#F0F0F0;stroke-width:9.72"/>
	<line x1="847.46" y1="304.93" x2="847.46" y2="240.13" style="stroke:#F0F0F0;stroke-width:9.72"/>
	<line x1="847.46" y1="207.73" x2="847.46" y2="142.93" style="stroke:#F0F0F0;stroke-width:9.72"/>
	<line x1="1461.21" y1="2637.73" x2="1461.21" y2="2572.93" style="stroke:#F0F0F0;stroke-width:9.72"/>
	<line x1="1461.21" y1="2540.53" x2="1461.21" y2="2475.73" style="stroke:#F0F0F0;stroke-width:9.72"/>
	<line x1="1461.21" y1="2443.33" x2="1461.21" y2="2378.53" style="stroke:#F0F0F0;stroke-width:9.72"/>
	<line x1="1461.21" y1="2346.13" x2="1461.21" y2="2281.33" style="stroke:#F0F0F0;stroke-width:9.72"/>
	<line x1="1461.21" y1="2248.93" x2="1461.21" y2="2184.13" style="stroke:#F0F0F0;stroke-width:9.72"/>
	<line x1="1461.21" y1="2151.73" x2="1461.21" y2="2086.93" style="stroke:#F0F0F0;stroke-width:9.72"/>
	<line x1="1461.21" y1="2054.53" x2="1461.21" y2="1989.73" style="stroke:#F0F0F0;stroke-width:9.72"/>
	<line x1="1461.21" y1="1957.33" x2="1461.21" y2="1892.53" style="stroke:#F0F0F0;stroke-width:9.72"/>
	<line x1="1461.21" y1="1860.13" x2="1461.21" y2="1795.33" style="stroke:#F0F0F0;stroke-width:9.72"/>
	<line x1="1461.21" y1="1762.93" x2="1461.21" y2="1698.13" style="stroke:#F0F0F0;stroke-width:9.72"/>
	<line x1="1461.21" y1="1665.73" x2="1461.21" y2="1600.93" style="stroke:#F0F0F0;stroke-width:9.72"/>
	<line x1="1461.21" y1="1568.53" x2="1461.21" y2="1503.73" style="stroke:#F0F0F0;stroke-width:9.72"/>
	<line x1="1461.21" y1="1471.33" x2="1461.21" y2="1406.53" style="stroke:#F0F0F0;stroke-width:9.72"/>
	<line x1="1461.21" y1="1374.13" x2="1461.21" y2="1309.33" style="stroke:#F0F0F0;stroke-width:9.72"/>
	<line x1="1461.21" y1="1276.93" x2="1461.21" y2="1212.13" style="stroke:#F0F0F0;stroke-width:9.72"/>
	<line x1="1461.21" y1="1179.73" x2="1461.21" y2="1114.93" style="stroke:#F0F0F0;stroke-width:9.72"/>
	<line x1="1461.21" y1="1082.53" x2="1461.21" y2="1017.73" style="stroke:#F0F0F0;stroke-width:9.72"/>
	<line x1="1461.21" y1="985.33" x2="1461.21" y2="920.53" style="stroke:#F0F0F0;stroke-width:9.72"/>
	<line x1="1461.21" y1="888.13" x2="1461.21" y2="823.33" style="stroke:#F0F0F0;stroke-width:9.72"/>
	<line x1="1461.21" y1="790.93" x2="1461.21" y2="726.13" style="stroke:#F0F0F0;stroke-width:9.72"/>
	<line x1="1461.21" y1="693.73" x2="1461.21" y2="628.93" style="stroke:#F0F0F0;stroke-width:9.72"/>
	<line x1="1461.21" y1="596.53" x2="1461.21" y2="531.73" style="stroke:#F0F0F0;stroke-width:9.72"/>
	<line x1="1461.21" y1="499.33" x2="1461.21" y2="434.53" style="stroke:#F0F0F0;stroke-width:9.72"/>
	<line x1="1461.21" y1="402.13" x2="1461.21" y2="337.33" style="stroke:#F0F0F0;stroke-width:9.72"/>
	<line x1="1461.21" y1="304.93" x2="1461.21" y2="240.13" style="stroke:#F0F0F0;stroke-width:9.72"/>
	<line x1="1461.21" y1="207.73" x2="1461.21" y2="142.93" style="stroke:#F0F0F0;stroke-width:9.72"/>
	<line x1="2074.78" y1="2637.73" x2="2074.78" y2="2572.93" style="stroke:#F0F0F0;stroke-width:9.72"/>
	<line x1="2074.78" y1="2540.53" x2="2074.78" y2="2475.73" style="stroke:#F0F0F0;stroke-width:9.72"/>
	<line x1="2074.78" y1="2443.33" x2="2074.78" y2="2378.53" style="stroke:#F0F0F0;stroke-width:9.72"/>
	<line x1="2074.78" y1="2346.13" x2="2074.78" y2="2281.33" style="stroke:#F0F0F0;stroke-width:9.72"/>
	<line x1="2074.78" y1="2248.93" x2="2074.78" y2="2184.13" style="stroke:#F0F0F0;stroke-width:9.72"/>
	<line x1="2074.78" y1="2151.73" x2="2074.78" y2="2086.93" style="stroke:#F0F0F0;stroke-width:9.72"/>
	<line x1="2074.78" y1="2054.53" x2="2074.78" y2="1989.73" style="stroke:#F0F0F0;stroke-width:9.72"/>
	<line x1="2074.78" y1="1957.33" x2="2074.78" y2="1892.53" style="stroke:#F0F0F0;stroke-width:9.72"/>
	<line x1="2074.78" y1="1860.13" x2="2074.78" y2="1795.33" style="stroke:#F0F0F0;stroke-width:9.72"/>
	<line x1="2074.78" y1="1762.93" x2="2074.78" y2="1698.13" style="stroke:#F0F0F0;stroke-width:9.72"/>
	<line x1="2074.78" y1="1665.73" x2="2074.78" y2="1600.93" style="stroke:#F0F0F0;stroke-width:9.72"/>
	<line x1="2074.78" y1="1568.53" x2="2074.78" y2="1503.73" style="stroke:#F0F0F0;stroke-width:9.72"/>
	<line x1="2074.78" y1="1471.33" x2="2074.78" y2="1406.53" style="stroke:#F0F0F0;stroke-width:9.72"/>
	<line x1="2074.78" y1="1374.13" x2="2074.78" y2="1309.33" style="stroke:#F0F0F0;stroke-width:9.72"/>
	<line x1="2074.78" y1="1276.93" x2="2074.78" y2="1212.13" style="stroke:#F0F0F0;stroke-width:9.72"/>
	<line x1="2074.78" y1="1179.73" x2="2074.78" y2="1114.93" style="stroke:#F0F0F0;stroke-width:9.72"/>
	<line x1="2074.78" y1="1082.53" x2="2074.78" y2="1017.73" style="stroke:#F0F0F0;stroke-width:9.72"/>
	<line x1="2074.78" y1="985.33" x2="2074.78" y2="920.53" style="stroke:#F0F0F0;stroke-width:9.72"/>
	<line x1="2074.78" y1="888.13" x2="2074.78" y2="823.33" style="stroke:#F0F0F0;stroke-width:9.72"/>
	<line x1="2074.78" y1="790.93" x2="2074.78" y2="726.13" style="stroke:#F0F0F0;stroke-width:9.72"/>
	<line x1="2074.78" y1="693.73" x2="2074.78" y2="628.93" style="stroke:#F0F0F0;stroke-width:9.72"/>
	<line x1="2074.78" y1="596.53" x2="2074.78" y2="531.73" style="stroke:#F0F0F0;stroke-width:9.72"/>
	<line x1="2074.78" y1="499.33" x2="2074.78" y2="434.53" style="stroke:#F0F0F0;stroke-width:9.72"/>
	<line x1="2074.78" y1="402.13" x2="2074.78" y2="337.33" style="stroke:#F0F0F0;stroke-width:9.72"/>
	<line x1="2074.78" y1="304.93" x2="2074.78" y2="240.13" style="stroke:#F0F0F0;stroke-width:9.72"/>
	<line x1="2074.78" y1="207.73" x2="2074.78" y2="142.93" style="stroke:#F0F0F0;stroke-width:9.72"/>
	<line x1="2688.53" y1="2637.73" x2="2688.53" y2="2572.93" style="stroke:#F0F0F0;stroke-width:9.72"/>
	<line x1="2688.53" y1="2540.53" x2="2688.53" y2="2475.73" style="stroke:#F0F0F0;stroke-width:9.72"/>
	<line x1="2688.53" y1="2443.33" x2="2688.53" y2="2378.53" style="stroke:#F0F0F0;stroke-width:9.72"/>
	<line x1="2688.53" y1="2346.13" x2="2688.53" y2="2281.33" style="stroke:#F0F0F0;stroke-width:9.72"/>
	<line x1="2688.53" y1="2248.93" x2="2688.53" y2="2184.13" style="stroke:#F0F0F0;stroke-width:9.72"/>
	<line x1="2688.53" y1="2151.73" x2="2688.53" y2="2086.93" style="stroke:#F0F0F0;stroke-width:9.72"/>
	<line x1="2688.53" y1="2054.53" x2="2688.53" y2="1989.73" style="stroke:#F0F0F0;stroke-width:9.72"/>
	<line x1="2688.53" y1="1957.33" x2="2688.53" y2="1892.53" style="stroke:#F0F0F0;stroke-width:9.72"/>
	<line x1="2688.53" y1="1860.13" x2="2688.53" y2="1795.33" style="stroke:#F0F0F0;stroke-width:9.72"/>
	<line x1="2688.53" y1="1762.93" x2="2688.53" y2="1698.13" style="stroke:#F0F0F0;stroke-width:9.72"/>
	<line x1="2688.53" y1="1665.73" x2="2688.53" y2="1600.93" style="stroke:#F0F0F0;stroke-width:9.72"/>
	<line x1="2688.53" y1="1568.53" x2="2688.53" y2="1503.73" style="stroke:#F0F0F0;stroke-width:9.72"/>
	<line x1="2688.53" y1="1471.33" x2="2688.53" y2="1406.53" style="stroke:#F0F0F0;stroke-width:9.72"/>
	<line x1="2688.53" y1="1374.13" x2="2688.53" y2="1309.33" style="stroke:#F0F0F0;stroke-width:9.72"/>
	<line x1="2688.53" y1="1276.93" x2="2688.53" y2="1212.13" style="stroke:#F0F0F0;stroke-width:9.72"/>
	<line x1="2688.53" y1="1179.73" x2="2688.53" y2="1114.93" style="stroke:#F0F0F0;stroke-width:9.72"/>
	<line x1="2688.53" y1="1082.53" x2="2688.53" y2="1017.73" style="stroke:#F0F0F0;stroke-width:9.72"/>
	<line x1="2688.53" y1="985.33" x2="2688.53" y2="920.53" style="stroke:#F0F0F0;stroke-width:9.72"/>
	<line x1="2688.53" y1="888.13" x2="2688.53" y2="823.33" style="stroke:#F0F0F0;stroke-width:9.72"/>
	<line x1="2688.53" y1="790.93" x2="2688.53" y2="726.13" style="stroke:#F0F0F0;stroke-width:9.72"/>
	<line x1="2688.53" y1="693.73" x2="2688.53" y2="628.93" style="stroke:#F0F0F0;stroke-width:9.72"/>
	<line x1="2688.53" y1="596.53" x2="2688.53" y2="531.73" style="stroke:#F0F0F0;stroke-width:9.72"/>
	<line x1="2688.53" y1="499.33" x2="2688.53" y2="434.53" style="stroke:#F0F0F0;stroke-width:9.72"/>
	<line x1="2688.53" y1="402.13" x2="2688.53" y2="337.33" style="stroke:#F0F0F0;stroke-width:9.72"/>
	<line x1="2688.53" y1="304.93" x2="2688.53" y2="240.13" style="stroke:#F0F0F0;stroke-width:9.72"/>
	<line x1="2688.53" y1="207.73" x2="2688.53" y2="142.93" style="stroke:#F0F0F0;stroke-width:9.72"/>
	<line x1="3302.10" y1="2637.73" x2="3302.10" y2="2572.93" style="stroke:#F0F0F0;stroke-width:9.72"/>
	<line x1="3302.10" y1="2540.53" x2="3302.10" y2="2475.73" style="stroke:#F0F0F0;stroke-width:9.72"/>
	<line x1="3302.10" y1="2443.33" x2="3302.10" y2="2378.53" style="stroke:#F0F0F0;stroke-width:9.72"/>
	<line x1="3302.10" y1="2346.13" x2="3302.10" y2="2281.33" style="stroke:#F0F0F0;stroke-width:9.72"/>
	<line x1="3302.10" y1="2248.93" x2="3302.10" y2="2184.13" style="stroke:#F0F0F0;stroke-width:9.72"/>
	<line x1="3302.10" y1="2151.73" x2="3302.10" y2="2086.93" style="stroke:#F0F0F0;stroke-width:9.72"/>
	<line x1="3302.10" y1="2054.53" x2="3302.10" y2="1989.73" style="stroke:#F0F0F0;stroke-width:9.72"/>
	<line x1="3302.10" y1="1957.33" x2="3302.10" y2="1892.53" style="stroke:#F0F0F0;stroke-width:9.72"/>
	<line x1="3302.10" y1="1860.13" x2="3302.10" y2="1795.33" style="stroke:#F0F0F0;stroke-width:9.72"/>
	<line x1="3302.10" y1="1762.93" x2="3302.10" y2="1698.13" style="stroke:#F0F0F0;stroke-width:9.72"/>
	<line x1="3302.10" y1="1665.73" x2="3302.10" y2="1600.93" style="stroke:#F0F0F0;stroke-width:9.72"/>
	<line x1="3302.10" y1="1568.53" x2="3302.10" y2="1503.73" style="stroke:#F0F0F0;stroke-width:9.72"/>
	<line x1="3302.10" y1="1471.33" x2="3302.10" y2="1406.53" style="stroke:#F0F0F0;stroke-width:9.72"/>
	<line x1="3302.10" y1="1374.13" x2="3302.10" y2="1309.33" style="stroke:#F0F0F0;stroke-width:9.72"/>
	<line x1="3302.10" y1="1276.93" x2="3302.10" y2="1212.13" style="stroke:#F0F0F0;stroke-width:9.72"/>
	<line x1="3302.10" y1="1179.73" x2="3302.10" y2="1114.93" style="stroke:#F0F0F0;stroke-width:9.72"/>
	<line x1="3302.10" y1="1082.53" x2="3302.10" y2="1017.73" style="stroke:#F0F0F0;stroke-width:9.72"/>
	<line x1="3302.10" y1="985.33" x2="3302.10" y2="920.53" style="stroke:#F0F0F0;stroke-width:9.72"/>
	<line x1="3302.10" y1="888.13" x2="3302.10" y2="823.33" style="stroke:#F0F0F0;stroke-width:9.72"/>
	<line x1="3302.10" y1="790.93" x2="3302.10" y2="726.13" style="stroke:#F0F0F0;stroke-width:9.72"/>
	<line x1="3302.10" y1="693.73" x2="3302.10" y2="628.93" style="stroke:#F0F0F0;stroke-width:9.72"/>
	<line x1="3302.10" y1="596.53" x2="3302.10" y2="531.73" style="stroke:#F0F0F0;stroke-width:9.72"/>
	<line x1="3302.10" y1="499.33" x2="3302.10" y2="434.53" style="stroke:#F0F0F0;stroke-width:9.72"/>
	<line x1="3302.10" y1="402.13" x2="3302.10" y2="337.33" style="stroke:#F0F0F0;stroke-width:9.72"/>
	<line x1="3302.10" y1="304.93" x2="3302.10" y2="240.13" style="stroke:#F0F0F0;stroke-width:9.72"/>
	<line x1="3302.10" y1="207.73" x2="3302.10" y2="142.93" style="stroke:#F0F0F0;stroke-width:9.72"/>
	<rect x="854.21" y="1894.39" width="449.89" height="743.34" style="fill:#FF8C19;fill-opacity:0.40"/>
	<rect x="856.64" y="1896.82" width="445.03" height="738.48" style="fill:none;stroke:#5FAAFF;stroke-width:4.86"/>
	<rect x="1304.10" y="1708.43" width="450.06" height="929.31" style="fill:#FF8C19;fill-opacity:0.40"/>
	<rect x="1306.53" y="1710.86" width="445.20" height="924.45" style="fill:none;stroke:#5FAAFF;stroke-width:4.86"/>
	<rect x="1754.16" y="965.08" width="450.06" height="1672.65" style="fill:#FF8C19;fill-opacity:0.40"/>
	<rect x="1756.59" y="967.51" width="445.20" height="1667.79" style="fill:none;stroke:#5FAAFF;stroke-width:4.86"/>
	<rect x="2204.21" y="965.08" width="449.89" height="1672.65" style="fill:#FF8C19;fill-opacity:0.40"/>
	<rect x="2206.64" y="967.51" width="445.03" height="1667.79" style="fill:none;stroke:#5FAAFF;stroke-width:4.86"/>
	<rect x="2654.10" y="2080.18" width="450.06" height="557.55" style="fill:#FF8C19;fill-opacity:0.40"/>
	<rect x="2656.53" y="2082.61" width="445.20" height="552.69" style="fill:none;stroke:#5FAAFF;stroke-width:4.86"/>
	<path d=" M854.04 2404.86 L861.64 2398.44 L869.23 2392.03 L876.66 2385.28 L884.25 2378.53 L891.68 2371.78 L899.27 2364.69 L906.86 2357.61 L914.29 2350.18 L921.88 2342.76 L929.31 2335.16 L936.90 2327.57 L944.33 2319.64 L951.92 2311.71 L959.51 2303.61 L966.94 2295.34 L974.53 2286.90 L981.96 2278.29 L989.55 2269.69 L997.14 2260.74 L1004.57 2251.80 L1012.16 2242.69 L1019.59 2233.41 L1027.18 2223.96 L1034.78 2214.51 L1042.20 2204.72 L1049.79 2194.93 L1057.22 2184.98 L1064.81 2174.85 L1072.41 2164.56 L1079.83 2154.09 L1087.43 2143.63 L1094.85 2133.00 L1102.44 2122.20 L1109.87 2111.23 L1117.46 2100.09 L1125.06 2088.79 L1132.48 2077.48 L1140.08 2066.01 L1147.50 2054.36 L1155.09 2042.55 L1162.69 2030.74 L1170.11 2018.76 L1177.71 2006.61 L1185.13 1994.29 L1192.72 1981.97 L1200.32 1969.48 L1207.74 1956.83 L1215.34 1944.17 L1222.76 1931.34 L1230.36 1918.35 L1237.95 1905.36 L1245.38 1892.19 L1252.97 1879.03 L1260.39 1865.53 L1267.99 1852.20 L1275.41 1838.70 L1283.01 1825.03 L1290.60 1811.36 L1298.03 1797.53 L1305.62 1783.69 L1313.04 1769.85 L1320.64 1755.84 L1328.23 1741.67 L1335.66 1727.66 L1343.25 1713.49 L1350.68 1699.14 L1358.27 1684.97 L1365.86 1670.63 L1373.29 1656.28 L1380.88 1641.94 L1388.31 1627.43 L1395.90 1613.08 L1403.49 1598.57 L1410.92 1584.06 L1418.51 1569.54 L1425.94 1555.03 L1433.53 1540.52 L1440.96 1526.01 L1448.55 1511.66 L1456.14 1497.15 L1463.57 1482.64 L1471.16 1468.29 L1478.59 1453.95 L1486.18 1439.61 L1493.78 1425.26 L1501.20 1411.09 L1508.79 1396.91 L1516.22 1382.74 L1523.81 1368.73 L1531.41 1354.73 L1538.83 1340.72 L1546.43 1326.88 L1553.85 1313.21 L1561.44 1299.54 L1569.04 1286.04 L1576.46 1272.54 L1584.06 1259.21 L1591.48 1246.05 L1599.08 1233.06 L1606.50 1220.06 L1614.09 1207.24 L1621.69 1194.58 L1629.11 1182.09 L1636.71 1169.78 L1644.13 1157.63 L1651.73 1145.64 L1659.32 1133.83 L1666.74 1122.02 L1674.34 1110.54 L1681.76 1099.24 L1689.36 1088.27 L1696.95 1077.30 L1704.38 1066.67 L1711.97 1056.21 L1719.39 1045.91 L1726.99 1035.79 L1734.58 1026.00 L1742.01 1016.38 L1749.60 1007.10 L1757.03 997.99 L1764.62 989.04 L1772.04 980.44 L1779.64 972.17 L1787.23 964.07 L1794.66 956.14 L1802.25 948.54 L1809.68 941.29 L1817.27 934.20 L1824.86 927.45 L1832.29 921.04 L1839.88 914.79 L1847.31 908.89 L1854.90 903.32 L1862.49 898.09 L1869.92 893.03 L1877.51 888.30 L1884.94 883.91 L1892.53 879.86 L1900.13 875.98 L1907.55 872.44 L1915.14 869.40 L1922.57 866.53 L1930.16 863.83 L1937.76 861.64 L1945.18 859.78 L1952.78 858.09 L1960.20 856.91 L1967.79 855.90 L1975.22 855.22 L1982.81 854.89 L1990.41 854.89 L1997.83 855.22 L2005.43 855.90 L2012.85 856.91 L2020.44 858.09 L2028.04 859.78 L2035.46 861.64 L2043.06 863.83 L2050.48 866.36 L2058.07 869.23 L2065.67 872.44 L2073.09 875.98 L2080.69 879.69 L2088.11 883.74 L2095.71 888.13 L2103.30 892.86 L2110.73 897.92 L2118.32 903.15 L2125.74 908.72 L2133.34 914.63 L2140.76 920.87 L2148.36 927.28 L2155.95 934.03 L2163.38 941.12 L2170.97 948.38 L2178.39 955.97 L2185.99 963.73 L2193.58 971.83 L2201.01 980.27 L2208.60 988.88 L2216.03 997.65 L2223.62 1006.76 L2231.21 1016.21 L2238.64 1025.66 L2246.23 1035.62 L2253.66 1045.57 L2261.25 1055.87 L2268.84 1066.33 L2276.27 1076.96 L2283.86 1087.93 L2291.29 1099.07 L2298.88 1110.38 L2306.31 1121.85 L2313.90 1133.49 L2321.49 1145.31 L2328.92 1157.29 L2336.51 1169.44 L2343.94 1181.76 L2351.53 1194.41 L2359.13 1206.90 L2366.55 1219.72 L2374.14 1232.72 L2381.57 1245.71 L2389.16 1258.88 L2396.76 1272.21 L2404.18 1285.71 L2411.78 1299.21 L2419.20 1312.88 L2426.79 1326.54 L2434.39 1340.38 L2441.81 1354.39 L2449.41 1368.23 L2456.83 1382.40 L2464.43 1396.58 L2471.85 1410.75 L2479.44 1424.93 L2487.04 1439.27 L2494.46 1453.61 L2502.06 1467.96 L2509.48 1482.30 L2517.07 1496.81 L2524.67 1511.33 L2532.09 1525.67 L2539.69 1540.18 L2547.11 1554.69 L2554.71 1569.21 L2562.30 1583.72 L2569.73 1598.23 L2577.32 1612.58 L2584.74 1627.09 L2592.34 1641.43 L2599.93 1655.94 L2607.36 1670.29 L2614.95 1684.63 L2622.38 1698.81 L2629.97 1713.15 L2637.39 1727.33 L2644.99 1741.33 L2652.58 1755.51 L2660.01 1769.34 L2667.60 1783.35 L2675.03 1797.19 L2682.62 1811.03 L2690.21 1824.69 L2697.64 1838.36 L2705.23 1851.86 L2712.66 1865.19 L2720.25 1878.69 L2727.84 1891.86 L2735.27 1905.02 L2742.86 1918.01 L2750.29 1931.01 L2757.88 1943.83 L2765.48 1956.49 L2772.90 1969.14 L2780.49 1981.63 L2787.92 1994.12 L2795.51 2006.27 L2803.11 2018.42 L2810.53 2030.40 L2818.13 2042.38 L2825.55 2054.03 L2833.14 2065.67 L2840.57 2077.14 L2848.16 2088.62 L2855.76 2099.76 L2863.18 2110.89 L2870.78 2121.86 L2878.20 2132.66 L2885.79 2143.29 L2893.39 2153.93 L2900.81 2164.39 L2908.41 2174.51 L2915.83 2184.64 L2923.43 2194.76 L2931.02 2204.55 L2938.44 2214.17 L2946.04 2223.79 L2953.46 2233.24 L2961.06 2242.52 L2968.65 2251.63 L2976.08 2260.57 L2983.67 2269.35 L2991.09 2278.13 L2998.69 2286.73 L3006.11 2295.00 L3013.71 2303.27 L3021.30 2311.54 L3028.73 2319.47 L3036.32 2327.40 L3043.74 2334.99 L3051.34 2342.59 L3058.93 2350.01 L3066.36 2357.27 L3073.95 2364.53 L3081.38 2371.61 L3088.97 2378.36 L3096.56 2385.11 L3103.99 2391.86" stroke-linejoin="round" style="fill:none;stroke:#000000;stroke-width:9.72"/>
	<rect x="1009.80" y="2382.07" width="327.04" height="255.66" style="fill:#198DFF;fill-opacity:0.50"/>
	<rect x="1012.23" y="2384.50" width="322.18" height="250.80" style="fill:none;stroke:#5FAAFF;stroke-width:4.86"/>
	<rect x="1336.84" y="1358.94" width="327.04" height="1278.79" style="fill:#198DFF;fill-opacity:0.50"/>
	<rect x="1339.27" y="1361.37" width="322.18" height="1273.93" style="fill:none;stroke:#5FAAFF;stroke-width:4.86"/>
	<rect x="1663.88" y="847.46" width="327.04" height="1790.27" style="fill:#198DFF;fill-opacity:0.50"/>
	<rect x="1666.31" y="849.89" width="322.18" height="1785.41" style="fill:none;stroke:#5FAAFF;stroke-width:4.86"/>
	<rect x="1990.91" y="591.64" width="327.04" height="2046.09" style="fill:#198DFF;fill-opacity:0.50"/>
	<rect x="1993.34" y="594.07" width="322.18" height="2041.23" style="fill:none;stroke:#5FAAFF;stroke-width:4.86"/>
	<rect x="2317.95" y="335.98" width="326.87" height="2301.75" style="fill:#198DFF;fill-opacity:0.50"/>
	<rect x="2320.38" y="338.41" width="322.01" height="2296.89" style="fill:none;stroke:#5FAAFF;stroke-width:4.86"/>
	<line x1="557.89" y1="2637.73" x2="557.89" y2="113.40" style="stroke:#000000;stroke-width:6.48"/>
	<line x1="557.89" y1="2637.73" x2="513.00" y2="2637.73" style="stroke:#000000;stroke-width:6.48"/>
	<text x="490.39" y="2677.17" style="font-family:'Helvetica';font-size:112.56px;fill:#000000" text-anchor="end">0</text>
	<line x1="557.89" y1="1820.14" x2="513.00" y2="1820.14" style="stroke:#000000;stroke-width:6.48"/>
	<text x="490.39" y="1859.57" style="font-family:'Helvetica';font-size:112.56px;fill:#000000" text-anchor="end">.01</text>
	<line x1="557.89" y1="1002.38" x2="513.00" y2="1002.38" style="stroke:#000000;stroke-width:6.48"/>
	<text x="490.39" y="1041.81" style="font-family:'Helvetica';font-size:112.56px;fill:#000000" text-anchor="end">.02</text>
	<line x1="557.89" y1="184.61" x2="513.00" y2="184.61" style="stroke:#000000;stroke-width:6.48"/>
	<text x="490.39" y="224.05" style="font-family:'Helvetica';font-size:112.56px;fill:#000000" text-anchor="end">.03</text>
	<text x="214.55" y="1375.65" style="font-family:'Helvetica';font-size:112.56px;fill:#000000" transform="rotate(-90 214.55,1375.65)" text-anchor="middle">Density</text>
	<line x1="557.89" y1="2637.73" x2="3373.48" y2="2637.73" style="stroke:#000000;stroke-width:6.48"/>
	<line x1="847.46" y1="2637.73" x2="847.46" y2="2682.79" style="stroke:#000000;stroke-width:6.48"/>
	<text x="847.46" y="2783.94" style="font-family:'Helvetica';font-size:112.56px;fill:#000000" text-anchor="middle">20</text>
	<line x1="1461.21" y1="2637.73" x2="1461.21" y2="2682.79" style="stroke:#000000;stroke-width:6.48"/>
	<text x="1461.21" y="2783.94" style="font-family:'Helvetica';font-size:112.56px;fill:#000000" text-anchor="middle">40</text>
	<line x1="2074.78" y1="2637.73" x2="2074.78" y2="2682.79" style="stroke:#000000;stroke-width:6.48"/>
	<text x="2074.78" y="2783.94" style="font-family:'Helvetica';font-size:112.56px;fill:#000000" text-anchor="middle">60</text>
	<line x1="2688.53" y1="2637.73" x2="2688.53" y2="2682.79" style="stroke:#000000;stroke-width:6.48"/>
	<text x="2688.53" y="2783.94" style="font-family:'Helvetica';font-size:112.56px;fill:#000000" text-anchor="middle">80</text>
	<line x1="3302.10" y1="2637.73" x2="3302.10" y2="2682.79" style="stroke:#000000;stroke-width:6.48"/>
	<text x="3302.10" y="2783.94" style="font-family:'Helvetica';font-size:112.56px;fill:#000000" text-anchor="middle">100</text>
	<text x="1965.60" y="2941.38" style="font-family:'Helvetica';font-size:112.56px;fill:#000000" text-anchor="middle">age</text>
	<rect x="3412.29" y="1113.24" width="1835.49" height="524.64" style="fill:#FFFFFF"/>
	<rect x="3415.53" y="1116.48" width="1829.01" height="518.16" style="fill:none;stroke:#FFFFFF;stroke-width:6.48"/>
	<rect x="3460.89" y="1161.84" width="259.20" height="112.56" style="fill:#FF8C19;fill-opacity:0.40"/>
	<rect x="3463.32" y="1164.27" width="254.34" height="107.70" style="fill:none;stroke:#5FAAFF;stroke-width:4.86"/>
	<line x1="3460.89" y1="1375.65" x2="3720.09" y2="1375.65" style="stroke:#000000;stroke-width:9.72"/>
	<rect x="3460.89" y="1476.90" width="259.20" height="112.39" style="fill:#198DFF;fill-opacity:0.50"/>
	<rect x="3463.32" y="1479.33" width="254.34" height="107.53" style="fill:none;stroke:#5FAAFF;stroke-width:4.86"/>
	<text x="3787.59" y="1257.47" style="font-family:'Helvetica';font-size:112.56px;fill:#000000">Sampled from Normal</text>
	<text x="3787.59" y="1415.09" style="font-family:'Helvetica';font-size:112.56px;fill:#000000">Theoretical Normal</text>
	<text x="3787.59" y="1572.53" style="font-family:'Helvetica';font-size:112.56px;fill:#000000">Sampled from t-distribution</text>
	<text x="577.29" y="3080.13" style="font-family:'Helvetica';font-size:89.94px;fill:#000000">Based on simulated data</text>
</svg>
